<svg width="56" height="57" viewBox="0 0 56 57" fill="none" xmlns="http://www.w3.org/2000/svg">
<path d="M51.625 29.375V21.5C51.625 19.0876 49.6624 17.125 47.25 17.125H24.5C23.8149 17.125 23.1753 17.2974 22.5977 17.5791C21.2791 16.0479 19.6254 14.913 17.7686 14.2655C19.7085 13.0186 21 10.8469 21 8.375C21 4.51538 17.8596 1.375 14 1.375C10.1404 1.375 7 4.51538 7 8.375C7 10.8539 8.2985 13.03 10.2471 14.2743C5.81613 15.8291 2.625 20.044 2.625 25V29.375H0.875V55.625H55.125V29.375H51.625ZM29.75 43.375V39.875H42V43.375H29.75ZM24.5 38.125C23.0527 38.125 21.875 36.9473 21.875 35.5V34.625H49.875V35.5C49.875 36.9473 48.6973 38.125 47.25 38.125H24.5ZM47.25 18.875C48.6973 18.875 49.875 20.0527 49.875 21.5V32.875H21.875V21.5C21.875 20.0527 23.0527 18.875 24.5 18.875H47.25ZM8.75 8.375C8.75 5.47962 11.1046 3.125 14 3.125C16.8954 3.125 19.25 5.47962 19.25 8.375C19.25 11.2704 16.8954 13.625 14 13.625C11.1046 13.625 8.75 11.2704 8.75 8.375ZM4.375 25C4.375 19.6931 8.69312 15.375 14 15.375C16.8009 15.375 19.383 16.565 21.2118 18.6458C20.5441 19.414 20.125 20.4045 20.125 21.5V29.375H8.75V21.5H7V29.375H4.375V25ZM20.125 31.125V35.5C20.125 37.9124 22.0876 39.875 24.5 39.875H28V43.375H24.5V45.125H47.25V43.375H43.75V39.875H47.25C49.6624 39.875 51.625 37.9124 51.625 35.5V31.125H53.375V48.625H2.625V31.125H20.125ZM2.625 53.875V50.375H53.375V53.875H2.625Z" fill="#4361EE"/>
<path d="M12.25 46.875C14.91 46.875 20.125 45.818 20.125 43.375V36.375C20.125 33.932 14.91 32.875 12.25 32.875C9.59 32.875 4.375 33.932 4.375 36.375V43.375C4.375 45.818 9.59 46.875 12.25 46.875ZM12.25 45.125C9.24175 45.125 6.29562 43.9385 6.125 43.375V42.0327C7.88637 42.9541 10.5744 43.375 12.25 43.375C13.9265 43.375 16.6154 42.9541 18.3768 42.0319V43.3549C18.2044 43.9385 15.2583 45.125 12.25 45.125ZM12.25 34.625C15.2241 34.625 18.137 35.7852 18.3706 36.375C18.137 36.9647 15.2241 38.125 12.25 38.125C9.24788 38.125 6.30963 36.9429 6.125 36.3995V36.3916C6.30963 35.8071 9.24788 34.625 12.25 34.625ZM6.125 38.5327C7.88637 39.4541 10.5744 39.875 12.25 39.875C13.9265 39.875 16.6145 39.4541 18.3759 38.5327V39.8566C18.1974 40.4411 15.2556 41.625 12.25 41.625C9.24175 41.625 6.29562 40.4385 6.125 39.875V38.5327Z" fill="#4361EE"/>
<path d="M25.375 10.125C25.9123 10.125 26.4119 9.96138 26.8284 9.68312L29.8813 11.973C29.8034 12.2198 29.75 12.4779 29.75 12.75C29.75 14.1973 30.9277 15.375 32.375 15.375C33.8223 15.375 35 14.1973 35 12.75C35 12.3457 34.9011 11.9678 34.7366 11.6256L38.2498 8.1125C38.5928 8.27612 38.9708 8.375 39.375 8.375C39.7792 8.375 40.1572 8.27613 40.4994 8.11163L42.2625 9.87475C42.0989 10.2177 42 10.5957 42 11C42 12.4473 43.1777 13.625 44.625 13.625C46.0723 13.625 47.25 12.4473 47.25 11C47.25 10.5957 47.1511 10.2178 46.9866 9.87563L50.4998 6.3625C50.8428 6.52612 51.2208 6.625 51.625 6.625C53.0723 6.625 54.25 5.44725 54.25 4C54.25 2.55275 53.0723 1.375 51.625 1.375C50.1777 1.375 49 2.55275 49 4C49 4.40425 49.0989 4.78225 49.2634 5.12437L45.7502 8.6375C45.4072 8.47388 45.0292 8.375 44.625 8.375C44.2208 8.375 43.8428 8.47387 43.5006 8.63837L41.7375 6.87525C41.9011 6.53225 42 6.15425 42 5.75C42 4.30275 40.8223 3.125 39.375 3.125C37.9277 3.125 36.75 4.30275 36.75 5.75C36.75 6.15425 36.8489 6.53225 37.0134 6.87437L33.5002 10.3875C33.1572 10.2239 32.7793 10.125 32.375 10.125C31.8378 10.125 31.3381 10.2886 30.9216 10.5669L27.8688 8.277C27.9466 8.03025 28 7.77212 28 7.5C28 6.05275 26.8222 4.875 25.375 4.875C23.9277 4.875 22.75 6.05275 22.75 7.5C22.75 8.94725 23.9277 10.125 25.375 10.125ZM51.625 3.125C52.1071 3.125 52.5 3.51787 52.5 4C52.5 4.48213 52.1071 4.875 51.625 4.875C51.1429 4.875 50.75 4.48213 50.75 4C50.75 3.51787 51.1429 3.125 51.625 3.125ZM45.5 11C45.5 11.4821 45.1071 11.875 44.625 11.875C44.1429 11.875 43.75 11.4821 43.75 11C43.75 10.5179 44.1429 10.125 44.625 10.125C45.1071 10.125 45.5 10.5179 45.5 11ZM39.375 4.875C39.8571 4.875 40.25 5.26787 40.25 5.75C40.25 6.23212 39.8571 6.625 39.375 6.625C38.8929 6.625 38.5 6.23212 38.5 5.75C38.5 5.26787 38.8929 4.875 39.375 4.875ZM32.375 11.875C32.8571 11.875 33.25 12.2679 33.25 12.75C33.25 13.2321 32.8571 13.625 32.375 13.625C31.8929 13.625 31.5 13.2321 31.5 12.75C31.5 12.2679 31.8929 11.875 32.375 11.875ZM25.375 6.625C25.8571 6.625 26.25 7.01788 26.25 7.5C26.25 7.98212 25.8571 8.375 25.375 8.375C24.8929 8.375 24.5 7.98212 24.5 7.5C24.5 7.01788 24.8929 6.625 25.375 6.625Z" fill="#4361EE"/>
<path d="M47.25 29.375H45.5V20.625H40.25V29.375H38.5V24.125H33.25V29.375H31.5V22.375H26.25V29.375H24.5V31.125H47.25V29.375ZM42 22.375H43.75V29.375H42V22.375ZM35 25.875H36.75V29.375H35V25.875ZM28 24.125H29.75V29.375H28V24.125Z" fill="#4361EE"/>
</svg>
