<svg width="56" height="56" viewBox="0 0 56 56" fill="none" xmlns="http://www.w3.org/2000/svg">
<path d="M46.375 39.8877L43.6748 37.1875L44.9417 35.9205L37.8446 27.6404C38.8561 25.263 39.375 22.7386 39.375 20.125C39.375 9.51038 30.7396 0.875 20.125 0.875C9.51038 0.875 0.875 9.51038 0.875 20.125C0.875 30.7396 9.51038 39.375 20.125 39.375C24.0844 39.375 27.8504 38.1806 31.0765 35.9398C30.7974 36.442 30.625 37.0107 30.625 37.625C30.625 38.9244 31.3451 40.0479 32.3995 40.6516L29.8497 46.3969C28.6221 49.1628 28 52.0993 28 55.125H29.75C29.75 52.3451 30.3214 49.6466 31.4493 47.1056L33.25 43.0483V55.125H35V43.0483L36.8008 47.1056C37.9286 49.6466 38.5 52.3451 38.5 55.125H40.25C40.25 52.0993 39.6279 49.1628 38.4003 46.396L35.8505 40.6507C35.9984 40.5659 36.1384 40.4722 36.2722 40.3672L38.5455 42.3159L39.8125 41.0489L42.5127 43.75L41.6377 44.625L45.5 48.4873L51.1123 42.875L47.25 39.0127L46.375 39.8877ZM6.125 9.66962V15.75C6.125 17.1973 7.30275 18.375 8.75 18.375C10.1973 18.375 11.375 17.1973 11.375 15.75V12.25C11.375 11.767 11.7679 11.375 12.25 11.375C12.7321 11.375 13.125 11.767 13.125 12.25V19.25C13.125 20.6973 14.3027 21.875 15.75 21.875C17.1973 21.875 18.375 20.6973 18.375 19.25V11.375H16.625V19.25C16.625 19.733 16.2321 20.125 15.75 20.125C15.2679 20.125 14.875 19.733 14.875 19.25V12.25C14.875 10.8027 13.6973 9.625 12.25 9.625C10.8027 9.625 9.625 10.8027 9.625 12.25V15.75C9.625 16.233 9.23213 16.625 8.75 16.625C8.26788 16.625 7.875 16.233 7.875 15.75V7.64838C10.2401 5.32613 13.2563 3.6645 16.625 2.97763V6.125H18.375V2.71338C18.9508 2.6565 19.5344 2.625 20.125 2.625C22.8419 2.625 25.4056 3.2655 27.7025 4.375H22.75C21.3027 4.375 20.125 5.55275 20.125 7C20.125 8.44725 21.3027 9.625 22.75 9.625H28.875C29.3571 9.625 29.75 10.017 29.75 10.5C29.75 10.983 29.3571 11.375 28.875 11.375H24.5C23.0527 11.375 21.875 12.5527 21.875 14C21.875 15.4473 23.0527 16.625 24.5 16.625H33.25V14.875H24.5C24.0179 14.875 23.625 14.483 23.625 14C23.625 13.517 24.0179 13.125 24.5 13.125H28.875C30.3223 13.125 31.5 11.9473 31.5 10.5C31.5 9.05275 30.3223 7.875 28.875 7.875H22.75C22.2679 7.875 21.875 7.483 21.875 7C21.875 6.517 22.2679 6.125 22.75 6.125H30.5804C33.4845 8.29938 35.7035 11.3391 36.8182 14.875H35V16.625H37.2724C37.5025 17.7564 37.625 18.9263 37.625 20.125C37.625 22.204 37.2627 24.2209 36.5584 26.1398L34.846 24.1413L36.2373 22.75L32.375 18.8878L21.5128 29.75L25.375 33.6123L26.7671 32.2201L29.7202 34.7506C28.105 35.8146 26.3489 36.5951 24.5009 37.0703V36.75C24.5009 35.3027 23.3231 34.125 21.8759 34.125H14.8759C14.3937 34.125 14.0009 33.733 14.0009 33.25C14.0009 32.767 14.3937 32.375 14.8759 32.375H17.5009C18.9481 32.375 20.1259 31.1973 20.1259 29.75C20.1259 28.3027 18.9481 27.125 17.5009 27.125H7.875C7.39288 27.125 7 26.733 7 26.25C7 25.767 7.39288 25.375 7.875 25.375H8.75C10.1973 25.375 11.375 24.1973 11.375 22.75C11.375 21.3027 10.1973 20.125 8.75 20.125H2.625C2.625 16.2032 3.9375 12.5904 6.125 9.66962ZM25.375 31.1377L23.9872 29.75L32.375 21.3622L33.7627 22.75L25.375 31.1377ZM2.71338 21.875H8.75C9.23213 21.875 9.625 22.267 9.625 22.75C9.625 23.233 9.23213 23.625 8.75 23.625H7.875C6.42775 23.625 5.25 24.8027 5.25 26.25C5.25 27.6973 6.42775 28.875 7.875 28.875H17.5C17.9821 28.875 18.375 29.267 18.375 29.75C18.375 30.233 17.9821 30.625 17.5 30.625H14.875C13.4277 30.625 12.25 31.8027 12.25 33.25C12.25 34.6973 13.4277 35.875 14.875 35.875H21.875C22.3571 35.875 22.75 36.267 22.75 36.75V37.4238C21.8881 37.5532 21.0123 37.625 20.125 37.625C11.0661 37.625 3.5945 30.7064 2.71338 21.875ZM34.125 35.875C35.0901 35.875 35.875 36.6599 35.875 37.625C35.875 38.5901 35.0901 39.375 34.125 39.375C33.1599 39.375 32.375 38.5901 32.375 37.625C32.375 36.6599 33.1599 35.875 34.125 35.875ZM38.4545 39.9333L37.3494 38.9865C37.527 38.5674 37.625 38.108 37.625 37.625C37.625 35.6948 36.0552 34.125 34.125 34.125C33.4521 34.125 32.8291 34.3245 32.2954 34.6553L28.007 30.9802L33.6044 25.3829L42.5583 35.8286L38.4545 39.9333ZM41.0498 39.8125L42.4375 38.4248L45.1377 41.125L43.75 42.5127L41.0498 39.8125ZM45.5 46.0127L44.1123 44.625L47.25 41.4873L48.6377 42.875L45.5 46.0127Z" fill="#4361EE"/>
<path d="M8.75 42.875H7C7 45.2874 5.03737 47.25 2.625 47.25V49C5.03737 49 7 50.9626 7 53.375H8.75C8.75 50.9626 10.7126 49 13.125 49V47.25C10.7126 47.25 8.75 45.2874 8.75 42.875ZM7.875 50.2364C7.35525 49.3701 6.62987 48.6448 5.76362 48.125C6.62987 47.6052 7.35525 46.8799 7.875 46.0136C8.39475 46.8799 9.12013 47.6052 9.98637 48.125C9.12013 48.6448 8.39475 49.3701 7.875 50.2364Z" fill="#4361EE"/>
<path d="M42.875 13.125H44.625C44.625 10.7126 46.5876 8.75 49 8.75V7C46.5876 7 44.625 5.03737 44.625 2.625H42.875C42.875 5.03737 40.9124 7 38.5 7V8.75C40.9124 8.75 42.875 10.7126 42.875 13.125ZM43.75 5.76362C44.2698 6.62987 44.9951 7.35525 45.8614 7.875C44.9951 8.39475 44.2698 9.12013 43.75 9.98637C43.2302 9.12013 42.5049 8.39475 41.6386 7.875C42.5049 7.35525 43.2302 6.62987 43.75 5.76362Z" fill="#4361EE"/>
<path d="M51.625 21.875H53.375V23.625H51.625V21.875Z" fill="#4361EE"/>
<path d="M53.375 23.625H55.125V25.375H53.375V23.625Z" fill="#4361EE"/>
<path d="M51.625 25.375H53.375V27.125H51.625V25.375Z" fill="#4361EE"/>
<path d="M49.875 23.625H51.625V25.375H49.875V23.625Z" fill="#4361EE"/>
<path d="M19.25 49.875H21V51.625H19.25V49.875Z" fill="#4361EE"/>
<path d="M21 51.625H22.75V53.375H21V51.625Z" fill="#4361EE"/>
<path d="M19.25 53.375H21V55.125H19.25V53.375Z" fill="#4361EE"/>
<path d="M17.5 51.625H19.25V53.375H17.5V51.625Z" fill="#4361EE"/>
<path d="M44.625 14.875H46.375V16.625H44.625V14.875Z" fill="#4361EE"/>
<path d="M46.375 16.625H48.125V18.375H46.375V16.625Z" fill="#4361EE"/>
<path d="M44.625 18.375H46.375V20.125H44.625V18.375Z" fill="#4361EE"/>
<path d="M42.875 16.625H44.625V18.375H42.875V16.625Z" fill="#4361EE"/>
<path d="M16.625 7.875H18.375V9.625H16.625V7.875Z" fill="#4361EE"/>
</svg>
