<svg width="56" height="56" viewBox="0 0 56 56" fill="none" xmlns="http://www.w3.org/2000/svg">
<path d="M8.49562 48.8604C8.94876 48.8604 9.31593 48.4932 9.31593 48.0401V43.7843L10.1788 44.6363C10.5009 44.9545 11.0203 44.9516 11.3387 44.6291C11.6571 44.3069 11.6538 43.7875 11.3316 43.4692L9.07214 41.2378C8.75254 40.922 8.23881 40.9223 7.91922 41.2378L5.65986 43.4692C5.33764 43.7875 5.33425 44.3069 5.65275 44.6292C5.9695 44.9499 6.48881 44.9562 6.81278 44.6363L7.67542 43.7844V48.0401C7.67531 48.4931 8.04259 48.8604 8.49562 48.8604Z" fill="#4361EE"/>
<path d="M15.7356 48.8604C16.1887 48.8604 16.5559 48.4932 16.5559 48.0401V43.7843L17.4188 44.6363C17.7408 44.9545 18.2603 44.9516 18.5787 44.6291C18.8971 44.3069 18.8938 43.7875 18.5716 43.4692L16.3121 41.2378C15.9925 40.922 15.4788 40.9223 15.1592 41.2378L12.8998 43.4692C12.5776 43.7875 12.5742 44.3069 12.8927 44.6292C13.2095 44.9499 13.7288 44.9562 14.0528 44.6363L14.9154 43.7844V48.0401C14.9153 48.4931 15.2825 48.8604 15.7356 48.8604Z" fill="#4361EE"/>
<path d="M23.955 50.0683L24.559 50.689C25.7085 51.8699 27.6047 51.896 28.7862 50.746L32.0303 47.5883C32.6889 46.9474 32.9104 45.9722 32.5943 45.1039C32.5942 45.1038 32.5942 45.1038 32.5942 45.1037C32.3162 44.3405 31.7834 44.0576 30.8795 43.1173L30.8788 43.1166C30.878 43.1159 30.8772 43.1151 30.8765 43.1143C30.6955 42.9381 30.1665 42.4233 28.786 41.0795C27.6049 39.9299 25.7086 39.9557 24.5589 41.1367L23.9548 41.7575C23.6389 42.0822 23.646 42.6015 23.9706 42.9174L27.0479 45.9127L23.9706 48.9082C23.646 49.2242 23.6389 49.7436 23.955 50.0683ZM28.7961 46.5006C29.1265 46.179 29.1271 45.647 28.7961 45.325L25.7028 42.314L25.7347 42.2811C26.2535 41.7483 27.109 41.7367 27.642 42.2553L29.8126 44.368C29.813 44.3684 29.8134 44.3688 29.8137 44.3691L30.8681 45.3954C31.1924 45.7109 31.1512 46.155 30.8864 46.4127L27.6421 49.5704C27.1094 50.0887 26.256 50.0799 25.7348 49.5446L25.7029 49.5118L28.7961 46.5006Z" fill="#4361EE"/>
<path d="M43.936 4.01877V1.41302C43.936 0.633937 43.3021 0 42.5229 0H36.0579C35.2787 0 34.6448 0.633937 34.6448 1.41302V4.07827C33.4977 4.44205 32.3923 4.9373 31.353 5.55942C30.9642 5.79217 30.8377 6.29584 31.0704 6.68456C31.3031 7.0735 31.8066 7.19972 32.1956 6.96719C34.3622 5.67033 36.8487 4.98477 39.3864 4.98477C47.1189 4.98477 53.4097 11.2756 53.4097 19.008C53.4097 26.7404 47.1189 33.0312 39.3864 33.0312C38.7028 33.0312 38.0171 32.9812 37.3402 32.8821V23.8418C37.3402 22.7143 36.423 21.7971 35.2956 21.7971H25.643C25.4582 20.8817 25.3632 19.9465 25.3632 19.0081C25.3632 15.1378 26.9058 11.5345 29.7068 8.86134C30.0346 8.54864 30.0466 8.02933 29.7339 7.70153C29.4213 7.37373 28.902 7.36181 28.5741 7.67441C25.4456 10.66 23.7226 14.685 23.7226 19.008C23.7226 19.9446 23.807 20.8788 23.9723 21.797H2.99436C1.86693 21.797 0.949707 22.7142 0.949707 23.8416V53.9552C0.949707 55.0827 1.86704 56 2.99436 56H35.2955C36.423 56 37.3401 55.0827 37.3401 53.9553V49.6799C37.3401 49.2267 36.9729 48.8596 36.5198 48.8596C36.0666 48.8596 35.6995 49.2267 35.6995 49.6799V53.9553C35.6995 54.1781 35.5182 54.3594 35.2955 54.3594H2.99436C2.77157 54.3594 2.59033 54.1781 2.59033 53.9553V23.8416C2.59033 23.6189 2.77157 23.4376 2.99436 23.4376H15.4667V27.6158C15.4667 28.4638 16.1566 29.1536 17.0045 29.1536H21.2857C22.1337 29.1536 22.8235 28.4638 22.8235 27.6158V23.4376H35.2958C35.5184 23.4376 35.6997 23.6189 35.6997 23.8417V46.4C35.6997 46.8532 36.0668 47.2204 36.52 47.2204C36.9731 47.2204 37.3403 46.8532 37.3403 46.4V34.5372C38.0185 34.6259 38.7033 34.6719 39.3865 34.6719C48.0236 34.6719 55.0504 27.6451 55.0504 19.008C55.0503 11.9526 50.3612 5.97275 43.936 4.01877ZM36.2853 3.654V1.64062H42.2953V3.61616C41.3524 3.43831 40.3802 3.34425 39.3863 3.34425C38.3399 3.34414 37.3013 3.44936 36.2853 3.654ZM21.1827 27.513H17.1073V23.4376H21.1828V27.513H21.1827Z" fill="#4361EE"/>
<path d="M39.3865 9.15395C39.8396 9.15395 40.2068 8.78678 40.2068 8.33364V7.39783C40.2068 6.94469 39.8396 6.57751 39.3865 6.57751C38.9333 6.57751 38.5662 6.94469 38.5662 7.39783V8.33364C38.5662 8.78678 38.9333 9.15395 39.3865 9.15395Z" fill="#4361EE"/>
<path d="M50.0608 19.8284H50.9966C51.4497 19.8284 51.8169 19.4612 51.8169 19.0081C51.8169 18.5549 51.4497 18.1878 50.9966 18.1878H50.0608C49.6077 18.1878 49.2405 18.5549 49.2405 19.0081C49.2405 19.4612 49.6077 19.8284 50.0608 19.8284Z" fill="#4361EE"/>
<path d="M38.5662 29.6824V30.6182C38.5662 31.0714 38.9333 31.4386 39.3865 31.4386C39.8396 31.4386 40.2068 31.0714 40.2068 30.6182V29.6824C40.2068 29.2293 39.8396 28.8621 39.3865 28.8621C38.9333 28.8621 38.5662 29.2293 38.5662 29.6824Z" fill="#4361EE"/>
<path d="M28.712 18.1878H27.7761C27.323 18.1878 26.9558 18.5549 26.9558 19.0081C26.9558 19.4612 27.323 19.8284 27.7761 19.8284H28.712C29.1652 19.8284 29.5324 19.4612 29.5324 19.0081C29.5324 18.5549 29.1652 18.1878 28.712 18.1878Z" fill="#4361EE"/>
<path d="M38.47 19.0081C38.47 19.3016 38.6268 19.5726 38.8811 19.719C39.0078 19.7919 39.1491 19.8284 39.2903 19.8284C39.4327 19.8284 39.5751 19.7913 39.7024 19.7174L43.0414 17.7774C43.4332 17.5498 43.5662 17.0476 43.3387 16.6559C43.111 16.2641 42.6088 16.1312 42.2173 16.3587L40.1106 17.5827V12.0244C40.1106 11.5712 39.7434 11.204 39.2903 11.204C38.8371 11.204 38.47 11.5712 38.47 12.0244V19.0081Z" fill="#4361EE"/>
</svg>
