<svg width="56" height="56" viewBox="0 0 56 56" fill="none" xmlns="http://www.w3.org/2000/svg">
<path d="M51.4839 14.4516H50.5806V0H5.41935V14.4516H4.51613C2.02608 14.4516 0 16.4777 0 18.9677V46.0645C0 48.5546 2.02608 50.5806 4.51613 50.5806H16.2581V54.1935H12.6452V56H43.3548V54.1935H39.7419V50.5806H51.4839C53.9739 50.5806 56 48.5546 56 46.0645V18.9677C56 16.4777 53.9739 14.4516 51.4839 14.4516ZM30.0548 36.129L29.3954 34.8095L31.6129 34.0708V32.5161C35.0992 32.5161 37.9355 29.679 37.9355 26.1935V15.7945L40.7823 20.3495L42.3145 19.3916L37.0323 10.9406L31.7501 19.3916L33.2822 20.3495L36.129 15.7945V26.1935C36.129 28.6836 34.1029 30.7097 31.6129 30.7097V29.1551L29.3945 28.4163L30.4406 26.3254L26.9649 22.8497L24.8749 23.8949L24.1353 21.6774H19.2205L18.4808 23.8949L16.3908 22.8497L12.9151 26.3254L13.9612 28.4163L11.7419 29.1551V34.0699L13.9603 34.8086L13.3001 36.129H7.22581V9.03226H48.7742V36.129H30.0548ZM28.243 36.5445L26.609 38.1785L24.6561 37.2021L24.2654 37.3771C24.1525 37.4279 24.0382 37.472 23.9227 37.5174L23.5244 37.67L22.8325 39.7419H20.5215L19.8304 37.67L19.4321 37.5174C19.3166 37.472 19.2015 37.427 19.0895 37.3771L18.6987 37.2021L16.7458 38.1785L15.1118 36.5445L16.0883 34.5916L15.9132 34.2009C15.8633 34.0897 15.8184 33.9768 15.7747 33.8621L15.623 33.4599L13.5484 32.768V30.457L15.6239 29.765L15.7756 29.3628C15.8192 29.2481 15.8642 29.1352 15.9141 29.0241L16.0891 28.6333L15.1127 26.6804L16.7467 25.0464L18.6996 26.0229L19.0908 25.8478C19.2037 25.7971 19.3175 25.753 19.433 25.7075L19.8313 25.5549L20.5224 23.4839H22.8334L23.5244 25.5558L23.9227 25.7084C24.0382 25.7538 24.1534 25.7988 24.2654 25.8487L24.6561 26.0238L26.609 25.0473L28.243 26.6813L27.2666 28.6342L27.4417 29.0249C27.4915 29.1361 27.5365 29.249 27.5801 29.3637L27.7319 29.7659L29.8064 30.4578V32.7688L27.731 33.4608L27.5793 33.863C27.5356 33.9777 27.4906 34.0906 27.4408 34.2017L27.2657 34.5925L28.243 36.5445ZM48.7742 1.80645V7.22581H7.22581V1.80645H48.7742ZM4.51613 16.2581H5.41935V37.9355H13.9484L16.3899 40.3761L18.48 39.3309L19.2196 41.5484H24.1344L24.874 39.3309L26.964 40.3761L29.4064 37.9355H50.5806V16.2581H51.4839C52.9776 16.2581 54.1935 17.474 54.1935 18.9677V43.3548H1.80645V18.9677C1.80645 17.474 3.02237 16.2581 4.51613 16.2581ZM37.9355 54.1935H18.0645V50.5806H37.9355V54.1935ZM51.4839 48.7742H4.51613C3.02237 48.7742 1.80645 47.5583 1.80645 46.0645V45.1613H54.1935V46.0645C54.1935 47.5583 52.9776 48.7742 51.4839 48.7742Z" fill="#4361EE"/>
<path d="M9.03223 3.6129H10.8387V5.41935H9.03223V3.6129Z" fill="#4361EE"/>
<path d="M12.6451 3.6129H14.4516V5.41935H12.6451V3.6129Z" fill="#4361EE"/>
<path d="M16.2581 3.6129H18.0645V5.41935H16.2581V3.6129Z" fill="#4361EE"/>
<path d="M21.6774 27.0968C19.1873 27.0968 17.1613 29.1229 17.1613 31.6129C17.1613 34.1029 19.1873 36.129 21.6774 36.129C24.1674 36.129 26.1935 34.1029 26.1935 31.6129C26.1935 29.1229 24.1674 27.0968 21.6774 27.0968ZM21.6774 34.3226C20.1836 34.3226 18.9677 33.1067 18.9677 31.6129C18.9677 30.1191 20.1836 28.9032 21.6774 28.9032C23.1711 28.9032 24.3871 30.1191 24.3871 31.6129C24.3871 33.1067 23.1711 34.3226 21.6774 34.3226Z" fill="#4361EE"/>
<path d="M14.7162 11.1033L12.6452 13.1744L10.5741 11.1033L9.29688 12.3806L11.3679 14.4516L9.29688 16.5227L10.5741 17.7999L12.6452 15.7288L14.7162 17.7999L15.9934 16.5227L13.9224 14.4516L15.9934 12.3806L14.7162 11.1033Z" fill="#4361EE"/>
<path d="M28 10.8387C26.0074 10.8387 24.3871 12.4591 24.3871 14.4516C24.3871 16.4442 26.0074 18.0645 28 18.0645C29.9926 18.0645 31.6129 16.4442 31.6129 14.4516C31.6129 12.4591 29.9926 10.8387 28 10.8387ZM28 16.2581C27.0037 16.2581 26.1935 15.4479 26.1935 14.4516C26.1935 13.4553 27.0037 12.6452 28 12.6452C28.9963 12.6452 29.8064 13.4553 29.8064 14.4516C29.8064 15.4479 28.9963 16.2581 28 16.2581Z" fill="#4361EE"/>
<path d="M43.3548 27.0968C41.3623 27.0968 39.7419 28.7171 39.7419 30.7097C39.7419 32.7022 41.3623 34.3226 43.3548 34.3226C45.3474 34.3226 46.9677 32.7022 46.9677 30.7097C46.9677 28.7171 45.3474 27.0968 43.3548 27.0968ZM43.3548 32.5161C42.3586 32.5161 41.5484 31.706 41.5484 30.7097C41.5484 29.7134 42.3586 28.9032 43.3548 28.9032C44.3511 28.9032 45.1613 29.7134 45.1613 30.7097C45.1613 31.706 44.3511 32.5161 43.3548 32.5161Z" fill="#4361EE"/>
</svg>
