<svg width="96" height="96" viewBox="0 0 96 96" fill="none" xmlns="http://www.w3.org/2000/svg">
<path fill-rule="evenodd" clip-rule="evenodd" d="M7.7208 8H88.2793C89.1836 8 89.9166 8.73321 89.9166 9.63736V26.4791C89.9166 27.3832 89.1836 28.1164 88.2793 28.1164H7.7208C6.81648 28.1164 6.08344 27.3832 6.08344 26.4791V9.63736C6.08344 8.73321 6.81648 8 7.7208 8ZM9.35816 24.8417H86.6419V11.2747H9.35816V24.8417ZM81.6055 19.7854L82.9427 21.1226C83.5821 21.7622 83.5821 22.7989 82.9427 23.4383C82.6231 23.7579 82.2039 23.9179 81.7849 23.9179C81.3659 23.9179 80.9469 23.7579 80.6272 23.4383L79.2899 22.1011C78.5682 22.4659 77.7664 22.6604 76.9341 22.6604C75.5369 22.6604 74.2233 22.1163 73.2351 21.1283C72.2473 20.1405 71.7031 18.8267 71.7031 17.4296C71.7031 16.0324 72.2471 14.7186 73.2351 13.7306C75.2748 11.6911 78.5932 11.6913 80.6327 13.7306C81.6207 14.7186 82.1648 16.0324 82.1648 17.4296C82.1648 18.2617 81.9705 19.0636 81.6055 19.7854ZM76.9341 19.3857C77.4567 19.3857 77.9479 19.1822 78.3173 18.8126C78.6869 18.4432 78.8904 17.952 78.8904 17.4296C78.8904 16.9071 78.6867 16.4159 78.3173 16.0463C77.936 15.665 77.435 15.4744 76.9341 15.4744C76.4332 15.4744 75.9322 15.665 75.5508 16.0463C75.1815 16.4157 74.9778 16.9071 74.9778 17.4296C74.9778 17.952 75.1815 18.4431 75.5508 18.8126C75.9204 19.1822 76.4114 19.3857 76.9341 19.3857ZM64.7567 20.703C64.7355 20.598 64.7043 20.4949 64.6634 20.3968C64.6225 20.2984 64.5717 20.2019 64.5128 20.1135C64.4538 20.0251 64.3851 19.94 64.3097 19.8646C64.2344 19.7893 64.1509 19.7206 64.0609 19.6616C63.9724 19.6027 63.8775 19.5519 63.7776 19.511C63.6794 19.47 63.5762 19.4389 63.4714 19.4176C63.2602 19.3751 63.0424 19.3751 62.8312 19.4176C62.7264 19.4389 62.6233 19.47 62.525 19.511C62.4268 19.5519 62.3318 19.6027 62.2434 19.6616C62.1533 19.7206 62.0698 19.7893 61.9929 19.8646C61.9176 19.94 61.8504 20.0249 61.7898 20.1135C61.7309 20.2019 61.6801 20.2985 61.6392 20.3968C61.5983 20.495 61.5672 20.598 61.5459 20.703C61.5246 20.8092 61.5148 20.9158 61.5148 21.0239C61.5148 21.1302 61.5246 21.2367 61.5459 21.3432C61.5672 21.448 61.5983 21.5511 61.6392 21.6492C61.6801 21.7476 61.7309 21.8426 61.7898 21.9325C61.8504 22.0209 61.9176 22.106 61.9929 22.1813C62.0698 22.2567 62.1533 22.3256 62.2434 22.3844C62.3318 22.4433 62.4268 22.4941 62.525 22.535C62.6249 22.5759 62.728 22.6071 62.8312 22.6283C62.9376 22.6496 63.0457 22.6594 63.1521 22.6594C63.2585 22.6594 63.3666 22.6495 63.4714 22.6283C63.5762 22.6072 63.6794 22.5759 63.7776 22.535C63.8758 22.4941 63.9724 22.4433 64.0609 22.3844C64.1509 22.3256 64.2344 22.2567 64.3097 22.1813C64.6143 21.8753 64.7895 21.4545 64.7895 21.0239C64.7895 20.9158 64.778 20.8092 64.7567 20.703ZM22.9145 19.3857H56.9442C57.8485 19.3857 58.5816 20.1189 58.5816 21.0231C58.5816 21.9272 57.8485 22.6604 56.9442 22.6604H22.9145C22.0102 22.6604 21.2771 21.9272 21.2771 21.0231C21.2771 20.1189 22.0102 19.3857 22.9145 19.3857ZM57.631 30.4507H7.91419C7.00987 30.4507 6.27683 31.1839 6.27683 32.088V64.3766C6.27683 65.2809 7.00987 66.014 7.91419 66.014H57.631C58.5353 66.014 59.2684 65.2808 59.2684 64.3766V32.088C59.2684 31.1839 58.5353 30.4507 57.631 30.4507ZM26.0275 62.7391H12.1294L21.4894 51.9021L28.2681 59.7516L26.0275 62.7391ZM30.1209 62.7391L33.1739 58.6684H41.1133C42.0176 58.6684 42.7507 57.9352 42.7507 57.0311C42.7507 56.1269 42.0176 55.3937 41.1133 55.3937H35.6301L36.7789 53.8621H47.0597L53.718 62.7391H30.1209ZM39.2348 50.5874L41.9192 47.0083L44.6037 50.5874H39.2348ZM55.9936 60.3155L43.2291 43.2967C42.9198 42.8844 42.4345 42.6418 41.9192 42.6418C41.4039 42.6418 40.9186 42.8844 40.6093 43.2967L30.2792 57.07L22.7287 48.3265C22.4178 47.9665 21.9654 47.7594 21.4895 47.7594C21.0137 47.7594 20.5615 47.9665 20.2504 48.3265L9.55155 60.7137V33.7254H55.9936V60.3155ZM22.8328 41.394C22.8328 38.2021 25.4295 35.6054 28.6213 35.6054C31.8132 35.6054 34.4099 38.2021 34.4099 41.394C34.4099 44.5858 31.8132 47.1825 28.6213 47.1825C25.4296 47.1825 22.8328 44.5858 22.8328 41.394ZM26.1075 41.3941C26.1075 42.7803 27.2351 43.908 28.6213 43.908C30.0075 43.908 31.1352 42.7803 31.1352 41.3941C31.1352 40.0079 30.0074 38.8803 28.6213 38.8803C27.2353 38.8803 26.1075 40.0079 26.1075 41.3941ZM88.2793 30.4507H63.1147C62.2104 30.4507 61.4773 31.1839 61.4773 32.088V64.3766C61.4773 65.2808 62.2104 66.014 63.1147 66.014H88.2793C89.1836 66.014 89.9166 65.2808 89.9166 64.3766V32.088C89.9166 31.1839 89.1836 30.4507 88.2793 30.4507ZM86.6419 62.7392H64.752V33.7254H86.6419V62.7392ZM68.5643 36.4223H82.8296C83.7339 36.4223 84.467 37.1555 84.467 38.0596C84.467 38.9638 83.7339 39.697 82.8296 39.697H68.5643C67.66 39.697 66.9269 38.9638 66.9269 38.0596C66.9269 37.1555 67.66 36.4223 68.5643 36.4223ZM82.8296 42.9937H68.5643C67.66 42.9937 66.9269 43.7269 66.9269 44.631C66.9269 45.5352 67.66 46.2684 68.5643 46.2684H82.8296C83.7339 46.2684 84.467 45.5352 84.467 44.631C84.467 43.7269 83.7339 42.9937 82.8296 42.9937ZM68.5643 49.565H82.8296C83.7339 49.565 84.467 50.2983 84.467 51.2024C84.467 52.1066 83.7339 52.8398 82.8296 52.8398H68.5643C67.66 52.8398 66.9269 52.1066 66.9269 51.2024C66.9269 50.2983 67.66 49.565 68.5643 49.565ZM70.1699 57.4535C70.1486 57.3486 70.1175 57.2454 70.0765 57.1473C70.0356 57.0489 69.9849 56.954 69.9259 56.8641C69.8653 56.7757 69.7982 56.6905 69.7212 56.6152C69.3414 56.2353 68.7765 56.06 68.2443 56.1682C68.1395 56.1895 68.0364 56.2206 67.9382 56.2615C67.8399 56.3025 67.7449 56.3532 67.6549 56.4122C67.5665 56.4711 67.4813 56.5399 67.406 56.6152C67.3307 56.6905 67.2619 56.7755 67.203 56.8641C67.144 56.9541 67.0933 57.0491 67.0523 57.1473C67.0114 57.2456 66.9803 57.3486 66.959 57.4535C66.9377 57.5598 66.9263 57.6664 66.9263 57.7727C66.9263 57.8807 66.9377 57.9873 66.959 58.0936C66.9803 58.1985 67.0114 58.3017 67.0523 58.3999C67.0933 58.4983 67.144 58.5933 67.203 58.6832C67.2619 58.7716 67.3307 58.8567 67.406 58.9321C67.4813 59.0074 67.5665 59.0762 67.6549 59.1351C67.7449 59.194 67.8399 59.2448 67.9382 59.2857C68.0364 59.3267 68.1395 59.3578 68.2443 59.3791C68.3508 59.4003 68.4572 59.4118 68.5653 59.4118C68.9959 59.4118 69.4167 59.2366 69.7212 58.9319C69.7966 58.8566 69.8653 58.7716 69.9259 58.683C69.9849 58.593 70.0356 58.498 70.0765 58.3998C70.1175 58.3015 70.1486 58.1985 70.1699 58.0936C70.1912 57.9873 70.201 57.8807 70.201 57.7727C70.201 57.6664 70.1912 57.5598 70.1699 57.4535ZM74.7715 56.1363H82.8296C83.7339 56.1363 84.4669 56.8695 84.4669 57.7736C84.4669 58.6778 83.7339 59.411 82.8296 59.411H74.7715C73.8672 59.411 73.1341 58.6778 73.1341 57.7736C73.1341 56.8695 73.8672 56.1363 74.7715 56.1363ZM33.0788 68.3371H7.91419C7.00987 68.3371 6.27683 69.0703 6.27683 69.9744V86.8396C6.27683 87.7437 7.00987 88.4769 7.91419 88.4769H33.0788C33.9831 88.4769 34.7161 87.7437 34.7161 86.8396V69.9744C34.7161 69.0703 33.9831 68.3371 33.0788 68.3371ZM31.4414 85.2022H9.55155V71.6118H31.4414V85.2022ZM38.7861 68.3371H88.2792C89.1835 68.3371 89.9166 69.0703 89.9166 69.9744V86.8396C89.9166 87.7437 89.1835 88.4769 88.2792 88.4769H38.7861C37.8817 88.4769 37.1487 87.7437 37.1487 86.8396V69.9744C37.1487 69.0703 37.8817 68.3371 38.7861 68.3371ZM40.4234 85.2022H86.6418V71.6118H40.4234V85.2022ZM47.8821 78.0877C47.8608 77.9831 47.8297 77.8798 47.7888 77.7815C47.7478 77.6816 47.6971 77.5868 47.6381 77.4984C47.5792 77.4082 47.5104 77.3247 47.4351 77.2494C47.3598 77.1741 47.2763 77.1053 47.1862 77.0463C47.0978 76.9876 47.0028 76.9366 46.9029 76.8957C46.8047 76.8548 46.7015 76.822 46.5968 76.8007C46.3855 76.7598 46.1678 76.7598 45.9565 76.8007C45.8534 76.822 45.7502 76.8548 45.6504 76.8957C45.5521 76.9366 45.4572 76.9876 45.3687 77.0463C45.2787 77.1053 45.1952 77.1741 45.1199 77.2494C45.0445 77.3247 44.9758 77.4082 44.9152 77.4984C44.8562 77.5868 44.8055 77.6816 44.7645 77.7815C44.7236 77.8799 44.6925 77.9829 44.6712 78.0877C44.6499 78.1925 44.6401 78.3006 44.6401 78.407C44.6401 78.5133 44.6499 78.6215 44.6712 78.7263C44.6925 78.8309 44.7236 78.9341 44.7645 79.0339C44.8055 79.1322 44.8562 79.2271 44.9152 79.3156C44.9758 79.4056 45.0445 79.4891 45.1199 79.5644C45.4244 79.869 45.8468 80.0443 46.2775 80.0443C46.3839 80.0443 46.492 80.0344 46.5968 80.0132C46.7015 79.992 46.8047 79.9592 46.9029 79.9183C47.0028 79.8773 47.0978 79.8282 47.1862 79.7676C47.2763 79.7089 47.3598 79.6401 47.4351 79.5646C47.5104 79.4893 47.5792 79.4058 47.6381 79.3157C47.6971 79.2273 47.7478 79.1323 47.7888 79.0341C47.8297 78.9342 47.8608 78.8311 47.8821 78.7263C47.9034 78.6213 47.9148 78.5133 47.9148 78.407C47.9148 78.3006 47.9034 78.1923 47.8821 78.0877ZM52.4844 76.7696H79.9806C80.8849 76.7696 81.618 77.5028 81.618 78.407C81.618 79.3111 80.8849 80.0443 79.9806 80.0443H52.4844C51.5801 80.0443 50.847 79.3111 50.847 78.407C50.847 77.5028 51.5801 76.7696 52.4844 76.7696Z" fill="#4361EE"/>
</svg>
