<svg width="96" height="96" viewBox="0 0 96 96" fill="none" xmlns="http://www.w3.org/2000/svg">
<g opacity="0.88">
<path d="M78.3454 0H82.4682C88.2753 0 92.9998 4.71724 93 10.5154V43.065C93 48.8633 88.2755 53.5806 82.4684 53.5806H78.2682L67.8072 61.5911C66.9113 62.2769 65.5487 61.5994 65.5487 60.474V53.5806H49.8552C48.4893 53.5806 47.1612 53.3214 45.9225 52.8228C45.9225 52.8228 45.917 59.9265 45.9063 60.1022H58.4398C62.0307 60.1022 64.9523 63.0197 64.9523 66.6062V73.5105C64.9523 75.3247 62.1425 75.3247 62.1425 73.5105V66.606C62.1425 64.5708 60.4814 62.9149 58.4398 62.9149H40.1888C38.1471 62.9149 36.4861 64.5706 36.4861 66.606V84.8212C36.4861 86.8565 38.1473 88.5123 40.1888 88.5123H50.215C50.9911 88.5123 51.6199 89.142 51.6199 89.9188V91.7443L55.4221 88.8056C55.6679 88.6157 55.9698 88.5125 56.2806 88.5125H58.4398C60.4816 88.5125 62.1425 86.8568 62.1425 84.8214V70.8941C62.1425 69.08 64.9523 69.08 64.9523 70.8941V84.8214C64.9523 88.4077 62.0307 91.3254 58.4398 91.3254H56.7599L51.0737 95.7207C50.1787 96.4126 48.8103 95.7351 48.8103 94.6073V91.3254H40.189C36.5981 91.3254 33.6765 88.4079 33.6765 84.8214V68.9988L26.5893 74.4771C25.6942 75.1687 24.3258 74.4919 24.3258 73.3637V68.1636H11.602C6.85894 68.1636 3 64.3103 3 59.5739V45.3815C3 43.5674 5.80977 43.5674 5.80977 45.3815V59.5737C5.80977 62.7591 8.40806 65.3505 11.602 65.3505H25.7305C26.5066 65.3505 27.1354 65.9802 27.1354 66.757V70.5007L33.419 65.6436C33.5327 65.5558 33.6554 65.4885 33.7831 65.4403C34.335 62.4086 36.9964 60.1018 40.1888 60.1018H43.0861C43.102 59.9267 43.1127 59.7506 43.1127 59.5737V50.6264C43.0966 50.5032 43.0958 50.3782 43.1127 50.254V33.9058C43.1127 30.7205 40.5142 28.129 37.3202 28.129H11.602C8.40806 28.129 5.80977 30.7205 5.80977 33.9058V48.373C5.80977 50.1871 3 50.1871 3 48.373V33.9058C3 29.1694 6.85894 25.3161 11.602 25.3161H37.3201C38.0098 25.3161 38.68 25.4 39.3232 25.5537V10.5154C39.3232 4.71724 44.0478 0 49.855 0H80.9589C82.771 0 82.771 2.8129 80.9589 2.8129H49.855C45.5971 2.8129 42.133 6.26827 42.133 10.5154V26.7899C44.4177 28.3357 45.9223 30.9485 45.9223 33.9058V49.6941C47.1091 50.3975 48.4548 50.7675 49.855 50.7675H66.9534C67.7295 50.7675 68.3583 51.3972 68.3583 52.1739V57.6274L76.9386 51.0568C77.1838 50.8691 77.4837 50.7675 77.7922 50.7675H82.4682C86.7262 50.7675 90.19 47.3121 90.19 43.0648V10.5154C90.19 6.26827 86.726 2.8129 82.4682 2.8129H78.3454C76.5331 2.8129 76.5331 0 78.3454 0Z" fill="#4361EE"/>
<path fill-rule="evenodd" clip-rule="evenodd" d="M66.0704 13.1916C66.0704 11.3463 67.8881 9.93536 69.672 10.3912C70.4362 10.5868 71.0729 11.072 71.464 11.7579C73.1398 14.694 73.3561 18.3066 72.0421 21.4219L71.7546 22.1036L78.699 22.1244C80.6977 22.1244 82.3272 23.7559 82.3272 25.7609L82.3253 26.3526C82.3171 28.835 82.2859 38.2575 82.3232 39.0491C82.419 41.0868 80.7355 42.8595 78.6949 42.8595H65.3406C63.5369 42.8595 61.7641 42.3535 60.2343 41.4178C60.0127 41.9027 59.5249 42.2404 58.9572 42.2404H51.4007C50.6247 42.2404 49.9959 41.6107 49.9959 40.834V23.8131C49.9959 23.0364 50.6247 22.4066 51.4007 22.4066H58.9572C59.4504 22.4066 59.8834 22.6615 60.1341 23.0465L64.0048 18.6615C65.3365 17.1506 66.0704 15.2077 66.0704 13.1916ZM52.8056 39.4275H57.5523V25.2196H52.8056V39.4275ZM79.5176 25.7608C79.5176 25.3066 79.1486 24.9371 78.6949 24.9371L69.6349 24.9099C69.1649 24.9084 68.7266 24.6718 68.4671 24.2791C68.2081 23.8864 68.162 23.39 68.345 22.9563L69.4537 20.3274C70.4291 18.0146 70.2688 15.3328 69.0246 13.1531C68.9886 13.0913 68.8802 13.1119 68.8802 13.1914C68.8802 15.8935 67.8967 18.4973 66.111 20.5233L60.3621 27.0359V38.0121L60.9534 38.4914C62.1908 39.4941 63.7488 40.0464 65.3406 40.0464H78.6949C78.9219 40.0464 79.1334 39.9558 79.2904 39.7911C79.381 39.6959 79.5311 39.49 79.5165 39.1811C79.4764 38.3252 79.4902 33.1761 79.511 27.7393L79.5116 27.5793C79.5151 26.6761 79.5176 26.0136 79.5176 25.7608Z" fill="#4361EE"/>
<path fill-rule="evenodd" clip-rule="evenodd" d="M15.0296 48.8504C14.2535 48.8504 13.6247 49.4801 13.6247 50.2568C13.6247 51.0336 14.2535 51.6633 15.0296 51.6633H19.1708L18.3972 56.3475C18.2706 57.1137 18.7887 57.8378 19.5541 57.9646C19.6318 57.9775 19.7088 57.9837 19.7848 57.9837C20.4599 57.9837 21.0554 57.4952 21.1693 56.8064L22.0186 51.6635H25.4078L24.6341 56.3477C24.5075 57.1139 25.0256 57.838 25.791 57.9647C25.8688 57.9777 25.9457 57.9839 26.0218 57.9839C26.6969 57.9839 27.2924 57.4954 27.4063 56.8066L28.2556 51.6637H33.8925C34.6686 51.6637 35.2974 51.0339 35.2974 50.2572C35.2974 49.4805 34.6686 48.8508 33.8925 48.8508H28.7201L29.2867 45.4198H33.8925C34.6686 45.4198 35.2974 44.79 35.2974 44.0133C35.2974 43.2366 34.6686 42.6069 33.8925 42.6069H29.7513L30.5249 37.9226C30.6515 37.1564 30.1334 36.4324 29.368 36.3056C28.6017 36.1784 27.8794 36.6975 27.7528 37.4637L26.9035 42.6067H23.5144L24.288 37.9224C24.4146 37.1562 23.8965 36.4322 23.1311 36.3054C22.3638 36.1782 21.6427 36.6973 21.5159 37.4636L20.6666 42.6065H15.0296C14.2535 42.6065 13.6247 43.2362 13.6247 44.0129C13.6247 44.7897 14.2535 45.4194 15.0296 45.4194H20.202L19.6354 48.8504H15.0296ZM23.05 45.4194H26.4391L25.8725 48.8504H22.4834L23.05 45.4194Z" fill="#4361EE"/>
<path fill-rule="evenodd" clip-rule="evenodd" d="M45.1399 69.2364C46.6538 68.8679 48.163 69.2368 49.2974 70.1718C50.3775 69.2848 51.8408 68.9289 53.3502 69.2642C55.3594 69.7103 57.3866 71.5074 57.3866 74.5164C57.3866 78.4125 54.4228 80.7838 49.9725 83.1457C49.7666 83.255 49.5405 83.3096 49.3144 83.3096C49.0884 83.3096 48.8623 83.255 48.6564 83.1457C46.1055 81.7917 44.459 80.6549 43.318 79.4594C41.9212 77.996 41.2422 76.3791 41.2422 74.5164C41.2422 71.5237 43.1998 69.7081 45.1399 69.2364ZM49.3143 80.3046C53.1843 78.1719 54.5766 76.6179 54.5766 74.5164C54.5766 72.9691 53.6288 72.2072 52.7412 72.0105C51.998 71.8453 51.0419 72.0169 50.5873 72.9924C50.3608 73.4785 49.8777 73.7931 49.3422 73.8038C48.8089 73.8149 48.3117 73.5194 48.0658 73.0427C47.6342 72.205 46.9342 71.9106 46.2975 71.9106C46.1257 71.9106 45.9586 71.9319 45.8026 71.9698C44.9561 72.1757 44.0517 72.9528 44.0517 74.5164C44.0517 76.6177 45.4443 78.1717 49.3143 80.3046Z" fill="#4361EE"/>
</g>
</svg>
