<svg width="96" height="96" viewBox="0 0 96 96" fill="none" xmlns="http://www.w3.org/2000/svg">
<path fill-rule="evenodd" clip-rule="evenodd" d="M10.5 36H16.0196L26.1285 43.221C26.3733 43.3957 26.665 43.4928 26.9657 43.4997C27.2664 43.5066 27.5622 43.4229 27.8147 43.2595C28.0673 43.0961 28.2649 42.8606 28.3818 42.5835C28.4988 42.3064 28.5298 42.0005 28.4707 41.7056L27.3296 36H37.5C39.4884 35.9977 41.3947 35.2067 42.8007 33.8007C44.2067 32.3947 44.9977 30.4884 45 28.5V10.5C44.9977 8.51159 44.2067 6.60529 42.8007 5.19928C41.3947 3.79326 39.4884 3.00233 37.5 3H10.5C8.51159 3.00233 6.60529 3.79326 5.19928 5.19928C3.79326 6.60529 3.00233 8.51159 3 10.5V28.5C3.00233 30.4884 3.79326 32.3947 5.19928 33.8007C6.60529 35.2067 8.51159 35.9977 10.5 36ZM6 10.5C6.00134 9.30694 6.47588 8.16312 7.3195 7.3195C8.16312 6.47588 9.30694 6.00134 10.5 6H37.5C38.6931 6.00134 39.8369 6.47588 40.6805 7.3195C41.5241 8.16312 41.9987 9.30694 42 10.5V28.5C41.9987 29.6931 41.5241 30.8369 40.6805 31.6805C39.8369 32.5241 38.6931 32.9987 37.5 33H25.5C25.2781 33 25.0589 33.0493 24.8583 33.1442C24.6577 33.2392 24.4807 33.3775 24.34 33.5491C24.1993 33.7208 24.0984 33.9215 24.0447 34.1368C23.991 34.3522 23.9857 34.5768 24.0293 34.7944L24.7852 38.5744L17.3715 33.279C17.1172 33.0975 16.8125 33 16.5 33H10.5C9.30694 32.9987 8.16312 32.5241 7.3195 31.6805C6.47588 30.8369 6.00134 29.6931 6 28.5V10.5ZM49.5 84H46.5V87H49.5V84ZM13.5 27V18C13.5 17.9869 13.5036 17.9749 13.5072 17.9629C13.5104 17.9521 13.5136 17.9413 13.5143 17.9297C13.0268 17.4393 12.6411 16.8573 12.3795 16.2173C12.1178 15.5772 11.9854 14.8918 11.9897 14.2003C11.9941 13.5089 12.1352 12.8251 12.4049 12.1884C12.6746 11.5517 13.0676 10.9747 13.5613 10.4905C14.0549 10.0063 14.6395 9.62453 15.2813 9.36719C15.9231 9.10984 16.6094 8.982 17.3008 8.991C17.9922 9.00001 18.675 9.1457 19.3099 9.41967C19.9448 9.69365 20.5192 10.0905 21 10.5874C21.4809 10.0905 22.0553 9.69365 22.6902 9.41967C23.325 9.1457 24.0078 9.00001 24.6992 8.991C25.3906 8.982 26.077 9.10984 26.7188 9.36719C27.3606 9.62453 27.9451 10.0063 28.4388 10.4905C28.9324 10.9747 29.3254 11.5517 29.5951 12.1884C29.8648 12.8251 30.0059 13.5089 30.0103 14.2003C30.0147 14.8918 29.8822 15.5772 29.6206 16.2173C29.3589 16.8573 28.9733 17.4393 28.4858 17.9297C28.4864 17.9413 28.4896 17.9521 28.4929 17.9629C28.4964 17.9749 28.5 17.9869 28.5 18V18.5728L32.3292 16.6583C32.5579 16.5439 32.812 16.4899 33.0674 16.5014C33.3229 16.5129 33.5711 16.5895 33.7887 16.7239C34.0062 16.8584 34.1857 17.0462 34.3102 17.2695C34.4347 17.4928 34.5 17.7443 34.5 18V27C34.5 27.2557 34.4347 27.5072 34.3102 27.7305C34.1857 27.9539 34.0062 28.1417 33.7887 28.2761C33.5711 28.4105 33.3229 28.4871 33.0674 28.4986C32.812 28.5101 32.5579 28.4561 32.3292 28.3418L28.5 26.4272V27C28.5 27.3978 28.342 27.7794 28.0607 28.0607C27.7794 28.342 27.3978 28.5 27 28.5H15C14.6022 28.5 14.2207 28.342 13.9394 28.0607C13.6581 27.7794 13.5 27.3978 13.5 27ZM16.5 19.5V25.5H25.5V19.5H16.5ZM31.5 24.5728V20.4272L28.5 21.9272V23.0728L31.5 24.5728ZM26.0001 12.3792C25.63 12.132 25.195 12 24.75 12C24.1535 12.0007 23.5816 12.2379 23.1597 12.6597C22.7379 13.0815 22.5007 13.6535 22.5 14.25C22.5 14.695 22.632 15.13 22.8792 15.5C23.1264 15.8701 23.4779 16.1584 23.889 16.3287C24.3001 16.499 24.7525 16.5436 25.189 16.4568C25.6254 16.37 26.0263 16.1557 26.341 15.841C26.6557 15.5263 26.87 15.1254 26.9568 14.689C27.0436 14.2525 26.999 13.8001 26.8288 13.389C26.6585 12.9778 26.3701 12.6264 26.0001 12.3792ZM18.5001 12.3792C18.13 12.132 17.695 12 17.25 12C16.6535 12.0007 16.0816 12.2379 15.6597 12.6597C15.2379 13.0815 15.0007 13.6535 15 14.25C15 14.695 15.132 15.13 15.3792 15.5C15.6264 15.8701 15.9778 16.1584 16.389 16.3287C16.8001 16.499 17.2525 16.5436 17.689 16.4568C18.1254 16.37 18.5263 16.1557 18.841 15.841C19.1557 15.5263 19.37 15.1254 19.4568 14.689C19.5436 14.2525 19.499 13.8001 19.3288 13.389C19.1585 12.9778 18.8701 12.6264 18.5001 12.3792ZM85.5 15H71.8483C71.5004 13.3073 70.5796 11.7863 69.241 10.6934C67.9025 9.60046 66.2281 9.00239 64.5 9H48V12H64.5C65.4276 12.0028 66.3316 12.2927 67.0878 12.8299C67.844 13.367 68.4155 14.1251 68.7236 15H55.5C53.5116 15.0023 51.6053 15.7933 50.1993 17.1993C48.7933 18.6053 48.0023 20.5116 48 22.5V40.5C48.0023 42.4884 48.7933 44.3947 50.1993 45.8007C51.6053 47.2067 53.5116 47.9977 55.5 48H67.1704L66.0292 53.7056C65.9702 54.0005 66.0012 54.3064 66.1182 54.5835C66.2351 54.8606 66.4327 55.0961 66.6853 55.2595C66.9378 55.4229 67.2336 55.5066 67.5343 55.4997C67.835 55.4928 68.1267 55.3957 68.3715 55.221L69 54.7721V60.879L64.8105 56.6895C64.1788 56.0578 63.4288 55.5567 62.6034 55.2148C61.778 54.8729 60.8934 54.6969 60 54.6969C59.1066 54.6969 58.222 54.8729 57.3966 55.2148C56.5712 55.5567 55.8212 56.0578 55.1895 56.6895C54.5578 57.3212 54.0567 58.0712 53.7148 58.8966C53.3729 59.722 53.1969 60.6066 53.1969 61.5C53.1969 62.3934 53.3729 63.278 53.7148 64.1034C54.0567 64.9288 54.5578 65.6788 55.1895 66.3105L64.0665 75.1875C63.4935 76.0695 63.021 77.0129 62.6578 78H24V85.5C24.0023 87.4884 24.7933 89.3947 26.1993 90.8007C27.6053 92.2067 29.5116 92.9977 31.5 93H84C84.3978 93 84.7794 92.842 85.0607 92.5607C85.342 92.2794 85.5 91.8978 85.5 91.5V63.06C85.506 59.0978 84.0794 55.267 81.4834 52.2737L78.2917 48.1348L78.4804 48H85.5C87.4884 47.9977 89.3947 47.2067 90.8007 45.8007C92.2067 44.3947 92.9977 42.4884 93 40.5V22.5C92.9977 20.5116 92.2067 18.6053 90.8007 17.1993C89.3947 15.7933 87.4884 15.0023 85.5 15ZM55.5 18H85.5C86.6931 18.0013 87.8369 18.4759 88.6805 19.3195C89.5241 20.1631 89.9987 21.3069 90 22.5V37.6973L83.3321 33.252C83.0856 33.0879 82.7961 33.0004 82.5 33.0004C82.2039 33.0004 81.9144 33.0879 81.6679 33.252L73.5512 38.6625L62.4 30.3C62.1405 30.1053 61.8249 30 61.5006 30C61.1762 30 60.8606 30.1053 60.6011 30.3L51 37.5V22.5C51.0013 21.3069 51.4759 20.1631 52.3195 19.3195C53.1631 18.4759 54.3069 18.0013 55.5 18ZM27 85.5V81H61.8217C61.3371 84.0793 61.85 87.2329 63.2854 90H31.5C30.3069 89.9987 29.1631 89.5241 28.3195 88.6805C27.4759 87.8369 27.0013 86.6931 27 85.5ZM79.1661 54.1764C81.3157 56.6367 82.5002 59.793 82.5 63.06V90H66.7573C65.7373 88.5554 65.0604 86.8972 64.7781 85.1514C64.4959 83.4057 64.6157 81.6186 65.1285 79.9262C65.4497 78.8307 65.9357 77.7905 66.5698 76.8413L67.2448 75.8364C67.4386 75.5478 67.5262 75.2009 67.4925 74.8549C67.4588 74.5089 67.306 74.1853 67.0601 73.9395L57.3101 64.1895C56.957 63.8363 56.6769 63.417 56.4858 62.9556C56.2947 62.4941 56.1963 61.9996 56.1964 61.5001C56.1964 60.4914 56.5972 59.5241 57.3105 58.8109C58.0238 58.0977 58.9912 57.697 59.9999 57.6971C60.4993 57.6971 60.9939 57.7956 61.4553 57.9867C61.9167 58.1779 62.336 58.4581 62.6891 58.8113L75.4391 71.5613L77.5601 69.4403L72 63.879V52.629L75.849 49.8797L79.1661 54.1764ZM85.5 45H78C77.6875 45 77.3829 45.0975 77.1285 45.279L69.7148 50.5744L70.4707 46.7944C70.5143 46.5768 70.509 46.3522 70.4553 46.1368C70.4016 45.9215 70.3007 45.7208 70.16 45.5491C70.0193 45.3775 69.8423 45.2392 69.6417 45.1442C69.4411 45.0493 69.2219 45 69 45H55.5C54.4297 44.9972 53.3956 44.6126 52.5836 43.9154C51.7715 43.2182 51.235 42.2541 51.0703 41.1966L61.5 33.375L72.6 41.7C72.8481 41.8864 73.1479 41.9911 73.4581 41.9998C73.7682 42.0084 74.0735 41.9206 74.3316 41.7484L82.5 36.3024L89.925 41.2524C89.7481 42.2987 89.2069 43.2488 88.3971 43.9346C87.5873 44.6204 86.5612 44.9978 85.5 45ZM76.8334 31.9888C75.8467 32.6481 74.6867 33 73.5 33C71.9092 32.9983 70.3841 32.3656 69.2592 31.2408C68.1344 30.1159 67.5017 28.5908 67.5 27C67.5 25.8133 67.8519 24.6533 68.5112 23.6666C69.1705 22.6799 70.1075 21.9108 71.2039 21.4567C72.3003 21.0026 73.5067 20.8838 74.6706 21.1153C75.8344 21.3468 76.9035 21.9182 77.7427 22.7574C78.5818 23.5965 79.1532 24.6656 79.3847 25.8295C79.6162 26.9933 79.4974 28.1997 79.0433 29.2961C78.5892 30.3925 77.8201 31.3295 76.8334 31.9888ZM75.1667 24.5056C74.6734 24.1759 74.0934 24 73.5 24C72.7047 24.0009 71.9421 24.3173 71.3797 24.8797C70.8173 25.4421 70.5009 26.2046 70.5 27C70.5 27.5933 70.6759 28.1734 71.0056 28.6667C71.3352 29.1601 71.8038 29.5446 72.352 29.7716C72.9001 29.9987 73.5033 30.0581 74.0853 29.9424C74.6672 29.8266 75.2018 29.5409 75.6213 29.1213C76.0409 28.7018 76.3266 28.1672 76.4424 27.5853C76.5581 27.0033 76.4987 26.4001 76.2717 25.8519C76.0446 25.3038 75.6601 24.8352 75.1667 24.5056ZM10.5 75H34.5C36.4884 74.9977 38.3947 74.2067 39.8007 72.8007C41.2067 71.3947 41.9977 69.4884 42 67.5V58.5C41.9977 56.5116 41.2067 54.6053 39.8007 53.1993C38.3947 51.7933 36.4884 51.0023 34.5 51H33.4219L34.4546 46.8639C34.5258 46.5788 34.5117 46.2791 34.414 46.002C34.3163 45.7249 34.1394 45.4825 33.9052 45.305C33.671 45.1276 33.3898 45.0228 33.0966 45.0037C32.8034 44.9847 32.511 45.0522 32.2558 45.1978L22.1016 51H10.5C8.51159 51.0023 6.60529 51.7933 5.19928 53.1993C3.79326 54.6053 3.00233 56.5116 3 58.5V67.5C3.00233 69.4884 3.79326 71.3947 5.19928 72.8007C6.60529 74.2067 8.51159 74.9977 10.5 75ZM6 58.5C6.00134 57.3069 6.47588 56.1631 7.3195 55.3195C8.16312 54.4759 9.30694 54.0013 10.5 54H22.5C22.761 53.9999 23.0176 53.9318 23.2442 53.8022L30.6928 49.5459L30.0454 52.1359C29.99 52.357 29.9858 52.5878 30.0331 52.8108C30.0803 53.0338 30.1777 53.2431 30.3179 53.4228C30.4582 53.6025 30.6375 53.7479 30.8423 53.8479C31.0471 53.9479 31.2721 53.9999 31.5 54H34.5C35.6931 54.0013 36.8369 54.4759 37.6805 55.3195C38.5241 56.1631 38.9987 57.3069 39 58.5V67.5C38.9987 68.6931 38.5241 69.8369 37.6805 70.6805C36.8369 71.5241 35.6931 71.9987 34.5 72H10.5C9.30694 71.9987 8.16312 71.5241 7.3195 70.6805C6.47588 69.8369 6.00134 68.6931 6 67.5V58.5ZM9 58.5H25.5V61.5H9V58.5ZM36 58.5H28.5V61.5H36V58.5ZM9 64.5H36V67.5H9V64.5Z" fill="#4361EE"/>
</svg>
