<svg width="96" height="96" viewBox="0 0 96 96" fill="none" xmlns="http://www.w3.org/2000/svg">
<path d="M26.431 61.2647L47.2968 73.3116C47.5143 73.4372 47.7571 73.5 47.9999 73.5C48.2427 73.5 48.4855 73.4372 48.703 73.3116L69.5688 61.2647C70.0038 61.0134 70.2719 60.5494 70.2719 60.0469V35.9531C70.2719 35.4506 70.0038 34.9866 69.5688 34.7353L48.703 22.6884C48.268 22.4372 47.7318 22.4372 47.2968 22.6884L26.431 34.7353C25.996 34.9866 25.7279 35.4506 25.7279 35.9531V60.0469C25.7279 60.5494 25.996 61.0134 26.431 61.2647ZM28.5404 38.3888L46.5937 48.8119V69.6581L28.5404 59.235V38.3888ZM47.9999 46.3763L29.9467 35.9531L37.567 31.5534L55.6203 41.9766L47.9999 46.3763ZM49.4062 69.6581V48.8119L67.4594 38.3888V59.235L49.4062 69.6581ZM47.9999 25.53L66.0532 35.9531L58.4328 40.3528L40.3795 29.9297L47.9999 25.53Z" fill="#4361EE"/>
<path d="M63.9438 49.0862C63.5088 48.8349 62.9726 48.8349 62.5376 49.0862L52.9218 54.6379C52.4868 54.8891 52.2187 55.3532 52.2187 55.8557V62.3509C52.2187 62.8534 52.4868 63.3174 52.9218 63.5687C53.1393 63.6943 53.3821 63.7571 53.625 63.7571C53.8678 63.7571 54.1106 63.6943 54.3281 63.5687L63.9438 58.017C64.3788 57.7657 64.647 57.3017 64.647 56.7992V50.304C64.647 49.8017 64.3788 49.3374 63.9438 49.0862ZM61.8345 55.9875L55.0312 59.9152V56.6676L61.8345 52.7396V55.9875Z" fill="#4361EE"/>
<path d="M85.2629 58.1861V37.8139C88.5856 36.2312 90.8879 32.8408 90.8879 28.9219C90.8879 23.4939 86.4721 19.0781 81.0442 19.0781C78.9701 19.0781 77.0448 19.7246 75.4561 20.8243L57.809 10.6357C57.83 10.3742 57.8437 10.1107 57.8437 9.84394C57.8437 4.41581 53.4279 0 47.9999 0C42.572 0 38.1562 4.41581 38.1562 9.84375C38.1562 10.1106 38.1699 10.3742 38.1909 10.6356L20.5437 20.8241C18.9551 19.7244 17.0298 19.0779 14.9557 19.0779C9.52775 19.0779 5.11194 23.4937 5.11194 28.9217C5.11194 32.8406 7.41425 36.231 10.7369 37.8137V58.1859C7.41425 59.7686 5.11194 63.159 5.11194 67.0779C5.11194 72.5059 9.52775 76.9217 14.9557 76.9217C17.0298 76.9217 18.9551 76.2752 20.5437 75.1755L38.1909 85.3641C38.1699 85.6256 38.1562 85.8891 38.1562 86.1559C38.1562 91.5838 42.572 95.9996 47.9999 95.9996C53.4279 95.9996 57.8437 91.5838 57.8437 86.1559C57.8437 85.8891 57.83 85.6254 57.809 85.3641L75.4561 75.1755C77.0448 76.2752 78.9701 76.9217 81.0442 76.9217C86.4721 76.9217 90.8879 72.5059 90.8879 67.0779C90.8879 63.1592 88.5856 59.7688 85.2629 58.1861ZM82.4504 57.3364C81.9909 57.2704 81.5217 57.2344 81.0442 57.2344C80.5666 57.2344 80.0975 57.2704 79.6379 57.3364V38.6636C80.0975 38.7296 80.5666 38.7656 81.0442 38.7656C81.5217 38.7656 81.9909 38.7296 82.4504 38.6636V57.3364ZM88.0754 28.9219C88.0754 32.799 84.9213 35.9531 81.0442 35.9531C77.1671 35.9531 74.0129 32.799 74.0129 28.9219C74.0129 25.0447 77.1671 21.8906 81.0442 21.8906C84.9213 21.8906 88.0754 25.0447 88.0754 28.9219ZM73.3158 22.836C72.7363 23.5704 72.2592 24.3885 71.9058 25.2696L55.7283 15.9294C56.3079 15.195 56.7849 14.3769 57.1383 13.4959L73.3158 22.836ZM47.9999 2.8125C51.8771 2.8125 55.0312 5.96662 55.0312 9.84375C55.0312 13.7209 51.8771 16.875 47.9999 16.875C44.1228 16.875 40.9687 13.7209 40.9687 9.84375C40.9687 5.96662 44.1228 2.8125 47.9999 2.8125ZM40.2721 15.9304L24.0944 25.2707C23.741 24.3891 23.2638 23.5706 22.6841 22.836L38.8616 13.4959C39.2152 14.3775 39.6924 15.1959 40.2721 15.9304ZM7.92444 28.9219C7.92444 25.0447 11.0786 21.8906 14.9557 21.8906C18.8328 21.8906 21.9869 25.0447 21.9869 28.9219C21.9869 32.799 18.8328 35.9531 14.9557 35.9531C11.0786 35.9531 7.92444 32.799 7.92444 28.9219ZM13.5494 38.6636C14.009 38.7296 14.4781 38.7656 14.9557 38.7656C15.4333 38.7656 15.9024 38.7296 16.3619 38.6636V51.1875C16.3619 51.9641 16.9916 52.5937 17.7682 52.5937C18.5448 52.5937 19.1744 51.9641 19.1744 51.1875V37.8139C22.4971 36.2312 24.7994 32.8408 24.7994 28.9219C24.7994 28.6554 24.7857 28.3924 24.7649 28.1314L42.413 17.9421C44.0013 19.0414 45.9262 19.6875 47.9999 19.6875C50.0741 19.6875 51.9993 19.041 53.588 17.9413L71.2351 28.1299C71.2141 28.3914 71.2004 28.6549 71.2004 28.9217C71.2004 32.8406 73.5027 36.231 76.8254 37.8137V58.1859C73.5027 59.7686 71.2004 63.159 71.2004 67.0779C71.2004 67.3447 71.2141 67.6082 71.2351 67.8697L53.5878 78.0583C51.9993 76.959 50.0741 76.3125 47.9999 76.3125C45.9258 76.3125 44.0006 76.959 42.4119 78.0587L24.7647 67.8701C24.7857 67.6086 24.7994 67.3451 24.7994 67.0783C24.7994 63.1594 22.4971 59.769 19.1744 58.1863V50.8125C19.1744 50.0359 18.5448 49.4062 17.7682 49.4062C16.9916 49.4062 16.3619 50.0359 16.3619 50.8125V57.3364C15.9024 57.2704 15.4333 57.2344 14.9557 57.2344C14.4781 57.2344 14.009 57.2704 13.5494 57.3364V38.6636ZM7.92444 67.0781C7.92444 63.201 11.0786 60.0469 14.9557 60.0469C18.8328 60.0469 21.9869 63.201 21.9869 67.0781C21.9869 70.9552 18.8328 74.1094 14.9557 74.1094C11.0786 74.1094 7.92444 70.9552 7.92444 67.0781ZM22.6841 73.164C23.2636 72.4296 23.7406 71.6115 24.0941 70.7304L40.2716 80.0706C39.692 80.805 39.215 81.6231 38.8616 82.5041L22.6841 73.164ZM47.9999 93.1875C44.1228 93.1875 40.9687 90.0334 40.9687 86.1562C40.9687 82.2791 44.1228 79.125 47.9999 79.125C51.8771 79.125 55.0312 82.2791 55.0312 86.1562C55.0312 90.0334 51.8771 93.1875 47.9999 93.1875ZM55.7283 80.0704L71.9058 70.7302C72.2592 71.6113 72.7363 72.4296 73.3158 73.1638L57.1383 82.5039C56.7849 81.6229 56.3079 80.8048 55.7283 80.0704ZM81.0442 74.1094C77.1671 74.1094 74.0129 70.9552 74.0129 67.0781C74.0129 63.201 77.1671 60.0469 81.0442 60.0469C84.9213 60.0469 88.0754 63.201 88.0754 67.0781C88.0754 70.9552 84.9213 74.1094 81.0442 74.1094Z" fill="#4361EE"/>
</svg>
