<svg width="96" height="96" viewBox="0 0 96 96" fill="none" xmlns="http://www.w3.org/2000/svg">
<path fill-rule="evenodd" clip-rule="evenodd" d="M11.8629 78.8097V84.6772C11.8629 85.4872 12.5192 86.144 13.3286 86.144H44.1089V83.2103H14.7944V78.8097H32.3831C32.61 78.8119 32.834 78.7618 33.0379 78.6629L38.9008 75.7292C39.3983 75.4814 39.7132 74.9729 39.7132 74.4163C39.7132 73.8605 39.3983 73.352 38.9008 73.1035L33.0379 70.1698C32.8354 70.0659 32.6107 70.0107 32.3831 70.0086H14.7944V20.1354H70.492C73.7298 20.1354 76.3549 17.5083 76.3549 14.268V11.3343C76.3549 10.5242 75.6986 9.86743 74.8892 9.86743H70.492V12.8011H73.4234V14.268C73.4234 15.8881 72.1109 17.2017 70.492 17.2017C68.8731 17.2017 67.5605 15.8881 67.5605 14.268V9.86743C67.5605 8.2473 68.8731 6.93372 70.492 6.93372H76.3549C77.9738 6.93372 79.2864 8.2473 79.2864 9.86743V43.6052H82.2178V9.86743C82.2178 6.62717 79.5927 4 76.3549 4H11.8629C8.62442 4 6 6.62717 6 9.86743V14.268C6 17.5083 8.62442 20.1354 11.8629 20.1354V70.0086H10.3972C7.96886 70.0086 6 71.979 6 74.4092C6 76.8394 7.96886 78.8097 10.3972 78.8097H11.8629ZM8.93145 14.268V9.86743C8.93145 8.2473 10.244 6.93372 11.8629 6.93372H65.4435C64.9161 7.82185 64.6348 8.83461 64.6291 9.86743V14.268C64.6348 15.3008 64.9161 16.3136 65.4435 17.2017H11.8629C10.244 17.2017 8.93145 15.8881 8.93145 14.268ZM34.9681 74.4092L32.0367 75.876H30.9174V72.9423H32.0367L34.9681 74.4092ZM8.93145 74.4092C8.93145 73.5991 9.58774 72.9423 10.3972 72.9423H27.9859V75.876H10.3972C9.58774 75.876 8.93145 75.2192 8.93145 74.4092Z" fill="#4361EE"/>
<path d="M76.3549 21.6023H73.4234V45.072H76.3549V21.6023Z" fill="#4361EE"/>
<path fill-rule="evenodd" clip-rule="evenodd" d="M66.0948 55.34C59.6186 55.34 54.369 60.5936 54.369 67.0749C54.369 73.5561 59.6186 78.8097 66.0948 78.8097C72.5703 78.8097 77.8206 73.5561 77.8206 67.0749C77.8135 60.5972 72.5675 55.3472 66.0948 55.34ZM66.0948 75.876C61.2374 75.876 57.3004 71.9353 57.3004 67.0749C57.3004 62.2145 61.2374 58.2737 66.0948 58.2737C70.9515 58.2737 74.8892 62.2145 74.8892 67.0749C74.8842 71.9339 70.9493 75.871 66.0948 75.876Z" fill="#4361EE"/>
<path fill-rule="evenodd" clip-rule="evenodd" d="M89.9007 62.415L85.3046 61.2648C84.9202 59.9949 84.41 58.7658 83.7816 57.5976L86.2206 53.5301C86.567 52.9528 86.4761 52.2136 86.0009 51.7373L81.4263 47.1534C80.9503 46.6771 80.2117 46.5869 79.6349 46.9335L75.5705 49.3745C75.043 49.0915 74.5005 48.8301 73.948 48.5923C73.2782 48.308 72.5932 48.0602 71.8962 47.8503L70.7468 43.2499C70.5843 42.5967 69.9982 42.1383 69.3254 42.1383H62.8599C62.1872 42.1383 61.601 42.5967 61.4378 43.2499L60.2892 47.8503C59.0195 48.2349 57.7921 48.7456 56.6248 49.3745L52.5605 46.9335C51.9836 46.5869 51.245 46.6771 50.7691 47.1534L46.1887 51.7316C45.7128 52.2079 45.6226 52.9471 45.969 53.5244L48.408 57.5919C47.7789 58.7601 47.2694 59.9884 46.8851 61.259L42.2882 62.4086C41.6355 62.5719 41.1774 63.1585 41.1774 63.8318V70.3065C41.1774 70.9798 41.6355 71.5664 42.2882 71.729L46.8851 72.8793C47.2694 74.1492 47.7789 75.3775 48.408 76.5464L45.969 80.614C45.6226 81.1912 45.7128 81.9304 46.1887 82.4067L50.7634 86.9849C51.2393 87.4605 51.9779 87.5514 52.554 87.2048L56.6184 84.7638C57.7864 85.3927 59.0138 85.9034 60.2827 86.288L61.4321 90.8877C61.5953 91.5409 62.1814 91.9993 62.8542 92H69.324C69.9967 91.9993 70.5829 91.5409 70.7453 90.8877L71.8947 86.288C73.1637 85.9034 74.3911 85.3927 75.5591 84.7638L79.6234 87.2048C80.2003 87.5514 80.9389 87.4605 81.4148 86.9849L85.9888 82.4067C86.4647 81.9304 86.5556 81.1912 86.2092 80.614L83.7701 76.5464C84.3985 75.3775 84.9088 74.1492 85.2931 72.8793L89.8893 71.729C90.542 71.5664 91 70.9798 91 70.3065V63.8375C91.0014 63.1678 90.5491 62.5819 89.9007 62.415ZM88.0807 69.1663L83.7673 70.2464C83.2427 70.3767 82.8333 70.7843 82.7002 71.3086C82.2965 72.8979 81.666 74.4206 80.8265 75.8288C80.5503 76.2929 80.5503 76.8709 80.8265 77.3343L83.116 81.1483L80.1659 84.1128L76.3549 81.8215C75.8919 81.5443 75.3143 81.5443 74.8512 81.8215C73.4435 82.661 71.9219 83.2927 70.3338 83.6959C69.8099 83.8291 69.4027 84.2396 69.2725 84.7638L68.1846 89.0777H64.0043L62.9257 84.761C62.7955 84.2367 62.3876 83.8263 61.8644 83.6931C60.2763 83.2891 58.7547 82.6581 57.347 81.8179C56.8839 81.5415 56.3064 81.5415 55.8433 81.8179L52.0323 84.1092L49.07 81.1569L51.3595 77.3429C51.6365 76.8795 51.6365 76.3015 51.3595 75.8381C50.5207 74.4292 49.8895 72.9065 49.4866 71.3172C49.3535 70.7936 48.9434 70.3853 48.4195 70.255L44.1089 69.1663V64.9835L48.4223 63.9034C48.9462 63.773 49.3563 63.3655 49.4894 62.8412C49.8924 61.2519 50.5236 59.7291 51.3624 58.321C51.6394 57.8569 51.6394 57.2789 51.3624 56.8155L49.0729 53.0015L52.0237 50.037L55.8347 52.3282C56.2978 52.6054 56.8753 52.6054 57.3384 52.3282C58.7461 51.4888 60.2677 50.8571 61.8558 50.4538C62.379 50.3206 62.7869 49.9102 62.9172 49.3859L64.0043 45.072H68.1846L69.2639 49.3888C69.3941 49.9131 69.8013 50.3235 70.3245 50.4567C71.9126 50.8592 73.4342 51.4902 74.8405 52.3304C75.3043 52.6076 75.8825 52.6076 76.3463 52.3304L80.1566 50.0391L83.1189 52.9929L80.8294 56.8069C80.5531 57.2703 80.5531 57.8483 80.8294 58.3117C81.6689 59.7205 82.2994 61.2433 82.703 62.8326C82.8362 63.3562 83.2455 63.7644 83.7701 63.8948L88.0807 64.9835V69.1663Z" fill="#4361EE"/>
<path fill-rule="evenodd" clip-rule="evenodd" d="M63.1634 24.536V27.4697H44.7158L42.6017 29.5848C45.4501 32.5722 47.0389 36.5423 47.0404 40.6714C47.0404 41.4815 46.3841 42.1383 45.5746 42.1383H30.9174C30.528 42.1376 30.1552 41.9814 29.881 41.7057L19.5165 31.3331C18.9446 30.7608 18.9446 29.8319 19.5165 29.2596C25.1224 23.635 33.992 22.9495 40.3945 27.6459L43.0726 24.9657C43.3474 24.6907 43.7203 24.536 44.1089 24.536H63.1634ZM31.5243 39.2046H44.0266C43.711 36.3754 42.4864 33.7253 40.5369 31.6518L36.3509 35.8411L34.2782 33.7669L38.2939 29.7481C33.521 26.4992 27.1886 26.7456 22.6827 30.3562L31.5243 39.2046Z" fill="#4361EE"/>
<path d="M66.0948 24.536H69.0263V27.4697H66.0948V24.536Z" fill="#4361EE"/>
<path d="M25.0545 46.5389H22.123V49.4726H25.0545V46.5389Z" fill="#4361EE"/>
<path d="M27.9859 46.5389H42.6432V49.4726H27.9859V46.5389Z" fill="#4361EE"/>
<path d="M42.6432 52.4063H19.1915V55.34H42.6432V52.4063Z" fill="#4361EE"/>
<path d="M51.4375 30.4034H54.369V33.3372H51.4375V30.4034Z" fill="#4361EE"/>
<path d="M69.0263 30.4034H57.3004V33.3372H69.0263V30.4034Z" fill="#4361EE"/>
<path d="M51.4375 36.2709H69.0263V39.2046H51.4375V36.2709Z" fill="#4361EE"/>
<path d="M38.246 58.2737H19.1915V61.2075H38.246V58.2737Z" fill="#4361EE"/>
</svg>
