<svg width="96" height="96" viewBox="0 0 96 96" fill="none" xmlns="http://www.w3.org/2000/svg">
<path d="M88.2581 0H29.4194C27.3661 0 25.3969 0.815666 23.945 2.26756C22.4931 3.71945 21.6774 5.68865 21.6774 7.74194V12.3871H7.74194C6.72525 12.3871 5.71852 12.5873 4.77922 12.9764C3.83993 13.3655 2.98647 13.9358 2.26756 14.6547C0.815666 16.1066 0 18.0757 0 20.129V66.5806C0 68.6339 0.815666 70.6031 2.26756 72.055C2.98647 72.7739 3.83993 73.3442 4.77922 73.7333C5.71852 74.1223 6.72525 74.3226 7.74194 74.3226H29.4194V83.6129H26.3226C24.2693 83.6129 22.3001 84.4286 20.8482 85.8805C19.3963 87.3324 18.5806 89.3015 18.5806 91.3548V94.4516C18.5806 94.8623 18.7438 95.2561 19.0342 95.5465C19.3245 95.8369 19.7184 96 20.129 96H60.3871C60.7978 96 61.1916 95.8369 61.482 95.5465C61.7724 95.2561 61.9355 94.8623 61.9355 94.4516V91.3548C61.9355 90.3382 61.7352 89.3314 61.3462 88.3921C60.9571 87.4528 60.3868 86.5994 59.6679 85.8805C58.949 85.1616 58.0956 84.5913 57.1563 84.2022C56.217 83.8132 55.2102 83.6129 54.1935 83.6129H51.0968V74.3226H72.7742C74.8275 74.3226 76.7967 73.5069 78.2486 72.055C79.7005 70.6031 80.5161 68.6339 80.5161 66.5806V55.7419H88.2581C90.3113 55.7419 92.2805 54.9263 93.7324 53.4744C95.1843 52.0225 96 50.0533 96 48V7.74194C96 6.72525 95.7997 5.71852 95.4107 4.77922C95.0216 3.83993 94.4513 2.98647 93.7324 2.26756C93.0135 1.54866 92.1601 0.978388 91.2208 0.58932C90.2815 0.200251 89.2747 0 88.2581 0ZM29.4194 3.09677H88.2581C89.49 3.09677 90.6715 3.58617 91.5427 4.45731C92.4138 5.32845 92.9032 6.50996 92.9032 7.74194V9.29032H24.7742V7.74194C24.7742 6.50996 25.2636 5.32845 26.1347 4.45731C27.0059 3.58617 28.1874 3.09677 29.4194 3.09677ZM58.8387 91.3548V92.9032H21.6774V91.3548C21.6774 90.1229 22.1668 88.9414 23.038 88.0702C23.9091 87.1991 25.0906 86.7097 26.3226 86.7097H54.1935C55.4255 86.7097 56.607 87.1991 57.4782 88.0702C58.3493 88.9414 58.8387 90.1229 58.8387 91.3548ZM48 83.6129H32.5161V74.3226H48V83.6129ZM72.7742 71.2258H7.74194C6.50996 71.2258 5.32845 70.7364 4.45731 69.8653C3.58617 68.9941 3.09677 67.8126 3.09677 66.5806V61.9355H77.4193V66.5806C77.4193 67.8126 76.9299 68.9941 76.0588 69.8653C75.1877 70.7364 74.0062 71.2258 72.7742 71.2258ZM77.4193 58.8387H3.09677V20.129C3.09677 18.8971 3.58617 17.7155 4.45731 16.8444C5.32845 15.9733 6.50996 15.4839 7.74194 15.4839H21.6774V48C21.6774 50.0533 22.4931 52.0225 23.945 53.4744C25.3969 54.9263 27.3661 55.7419 29.4194 55.7419H77.4193V58.8387ZM88.2581 52.6452H29.4194C28.1874 52.6452 27.0059 52.1558 26.1347 51.2846C25.2636 50.4135 24.7742 49.232 24.7742 48V12.3871H92.9032V48C92.9032 49.232 92.4138 50.4135 91.5427 51.2846C90.6715 52.1558 89.49 52.6452 88.2581 52.6452Z" fill="#4361EE"/>
<path d="M71.2258 65.0322H74.3226V68.129H71.2258V65.0322Z" fill="#4361EE"/>
<path d="M65.0323 65.0322H68.1291V68.129H65.0323V65.0322Z" fill="#4361EE"/>
<path d="M58.8387 65.0322H61.9355V68.129H58.8387V65.0322Z" fill="#4361EE"/>
<path d="M88.258 15.4839H29.4193C29.0087 15.4839 28.6148 15.647 28.3245 15.9374C28.0341 16.2278 27.8709 16.6216 27.8709 17.0323V48C27.8709 48.4107 28.0341 48.8045 28.3245 49.0949C28.6148 49.3853 29.0087 49.5484 29.4193 49.5484H88.258C88.6687 49.5484 89.0625 49.3853 89.3529 49.0949C89.6433 48.8045 89.8064 48.4107 89.8064 48V17.0323C89.8064 16.6216 89.6433 16.2278 89.3529 15.9374C89.0625 15.647 88.6687 15.4839 88.258 15.4839ZM40.258 43.3548H46.4516V40.2581H40.258V37.1613H43.3548V34.0645H40.258V30.9677H43.3548V27.871H40.258V24.7742H49.5484V46.4516H40.258V43.3548ZM63.6542 33.8013C63.3017 33.972 62.9155 34.062 62.5238 34.0645H61.3471C60.9554 34.062 60.5692 33.972 60.2167 33.8013C59.8003 33.5931 59.4505 33.2724 59.2069 32.8756C58.9634 32.4788 58.8358 32.0217 58.8387 31.5561C58.8369 31.2021 58.9347 30.8547 59.1209 30.5535C59.3071 30.2524 59.5741 30.0096 59.8916 29.8529C60.4493 29.5784 60.929 29.1678 61.2862 28.6591C61.6434 28.1503 61.8667 27.5598 61.9355 26.9419L63.9948 29.0013C64.3275 29.3378 64.5904 29.7368 64.7684 30.1752C64.9464 30.6136 65.0361 31.0829 65.0322 31.5561C65.0351 32.0217 64.9075 32.4788 64.664 32.8756C64.4204 33.2724 64.0706 33.5931 63.6542 33.8013ZM60.3871 37.0529C60.7039 37.1128 61.0248 37.149 61.3471 37.1613H62.5238C62.8461 37.149 63.167 37.1128 63.4838 37.0529V46.4516H60.3871V37.0529ZM74.3226 34.0645H77.4193V46.4516H74.3226V34.0645ZM74.9264 30.9677L75.8709 28.1187L76.8155 30.9677H74.9264ZM86.7096 46.4516H80.5161V32.5161C80.5384 32.3517 80.5384 32.185 80.5161 32.0206L77.4193 22.7303C77.3175 22.4205 77.1205 22.1508 76.8563 21.9596C76.5922 21.7684 76.2744 21.6654 75.9484 21.6654C75.6223 21.6654 75.3045 21.7684 75.0404 21.9596C74.7762 22.1508 74.5792 22.4205 74.4774 22.7303L71.3806 32.0206C71.3059 32.1777 71.2537 32.3445 71.2258 32.5161V46.4516H66.5806V35.4116C67.5757 34.3749 68.1306 32.9931 68.129 31.5561C68.1334 30.6752 67.9617 29.8022 67.624 28.9886C67.2863 28.1749 66.7895 27.437 66.1626 26.8181L61.5174 22.1729C61.2997 21.958 61.0231 21.8125 60.7228 21.7546C60.4224 21.6968 60.1116 21.7292 59.8296 21.8477C59.5482 21.956 59.3045 22.1441 59.1285 22.3889C58.9525 22.6337 58.8517 22.9246 58.8387 23.2258V26.5548C58.837 26.6638 58.8059 26.7702 58.7487 26.8629C58.6914 26.9556 58.6102 27.031 58.5135 27.0813C57.6801 27.4944 56.9789 28.1324 56.4891 28.9231C55.9993 29.7139 55.7405 30.6259 55.7419 31.5561C55.7403 32.9931 56.2952 34.3749 57.2903 35.4116V46.4516H52.6451V23.2258C52.6451 22.8151 52.482 22.4213 52.1916 22.1309C51.9012 21.8405 51.5074 21.6774 51.0967 21.6774H38.7097C38.299 21.6774 37.9052 21.8405 37.6148 22.1309C37.3244 22.4213 37.1613 22.8151 37.1613 23.2258V46.4516H30.9677V18.5806H86.7096V46.4516Z" fill="#4361EE"/>
</svg>
