<svg width="216" height="198" viewBox="0 0 216 198" fill="none" xmlns="http://www.w3.org/2000/svg">
<path d="M43.6384 158.167C39.9432 159.789 35.8619 160.698 31.5685 160.698C27.2772 160.698 23.1968 159.79 19.5029 158.168C8.10552 162.88 0.0700684 174.054 0.0700684 187.06V197.999H53.015V195.891C53.015 187.105 55.1184 178.799 58.847 171.439C55.3973 165.519 50.0509 160.819 43.6384 158.167Z" fill="white"/>
<path d="M196.355 158.232C192.699 159.815 188.668 160.698 184.432 160.698C180.082 160.698 175.951 159.765 172.218 158.103C165.832 160.704 160.497 165.334 157.015 171.178C160.827 178.603 162.985 187.001 162.985 195.892V198H215.625V187.061C215.625 174.116 207.667 162.983 196.355 158.232Z" fill="white"/>
<path d="M47.5764 137.571C51.2348 128.806 47.0457 118.755 38.2197 115.122C29.3938 111.488 19.2733 115.649 15.6149 124.414C11.9565 133.179 16.1457 143.23 24.9716 146.864C33.7975 150.497 43.9181 146.337 47.5764 137.571Z" fill="white"/>
<path d="M184.432 148.129C193.983 148.129 201.727 140.438 201.727 130.952C201.727 121.466 193.983 113.776 184.432 113.776C174.88 113.776 167.136 121.466 167.136 130.952C167.136 140.438 174.88 148.129 184.432 148.129Z" fill="white"/>
<path d="M108 148.129C121.363 148.129 132.195 137.37 132.195 124.099C132.195 110.828 121.363 100.07 108 100.07C94.6373 100.07 83.8046 110.828 83.8046 124.099C83.8046 137.37 94.6373 148.129 108 148.129Z" fill="white"/>
<path d="M124.099 157.016C119.232 159.373 113.769 160.698 108 160.698C102.231 160.698 96.768 159.373 91.9012 157.016C76.523 163.32 65.6716 178.37 65.6716 195.892V197.999H150.328V195.892C150.328 178.37 139.477 163.32 124.099 157.016Z" fill="white"/>
<path d="M121.388 26.8548L108.042 0H107.958L94.6118 26.8548L64.7718 31.1606L64.7549 31.2511L86.338 52.1451L81.2426 81.6482L81.3295 81.7006L108 67.7755L134.671 81.7006L134.757 81.6482L129.662 52.1451L151.245 31.2511L151.228 31.1606L121.388 26.8548Z" fill="white"/>
<path d="M16.1852 102.267L16.2468 102.291L31.7807 90.435L50.4208 96.4214L50.471 96.3786L43.9151 78.0371L55.4116 62.2764L55.3909 62.2207L35.7927 62.7452L24.2464 47.0084L24.1924 47.0181L18.638 65.6915L0.00084375 71.7335L0 71.793L16.1587 82.8046L16.1852 102.267Z" fill="white"/>
<path d="M165.529 96.3786L165.579 96.4214L184.219 90.435L199.753 102.291L199.815 102.267L199.841 82.8046L216 71.793L215.999 71.7335L197.362 65.6915L191.808 47.0181L191.754 47.0084L180.207 62.7452L160.609 62.2207L160.588 62.2764L172.085 78.0371L165.529 96.3786Z" fill="white"/>
</svg>
