<svg width="266" height="96" viewBox="0 0 266 96" fill="none" xmlns="http://www.w3.org/2000/svg">
<path d="M0.316406 78.0732V55.1545L32.815 2.52631L50.6407 13.8038L23.8415 57.4585L25.6604 60.1263H46.7602V29.568H67.6175V60.1263H77.1973V78.0732H67.6175V93.7162H46.7602V78.0732H0.316406Z" fill="white"/>
<path d="M188.803 78.0732V55.1545L221.302 2.52631L239.128 13.8038L212.328 57.4585L214.147 60.1263H235.247V29.568H256.104V60.1263H265.684V78.0732H256.104V93.7162H235.247V78.0732H188.803Z" fill="white"/>
<path d="M111.619 91.7665C117.698 94.5888 124.805 96 132.938 96C141.072 96 148.137 94.5888 154.135 91.7665C160.214 88.8612 165.226 85.0843 169.169 80.4358C173.113 75.7043 176.071 70.5992 178.042 65.1206C180.014 59.642 181 54.371 181 49.3074V46.5681C181 40.9235 179.973 35.3619 177.919 29.8833C175.865 24.3217 172.825 19.2996 168.8 14.8171C166.241 11.9676 163.283 9.48713 159.927 7.37562L160.258 7.71224C160.901 8.36709 160.873 9.75879 160.174 11.8873C159.476 14.0159 158.033 16.8061 155.845 20.258C153.647 23.6992 150.583 27.7969 146.652 32.551C142.822 37.1723 138.082 42.3646 132.433 48.128C137.919 42.5501 142.925 37.8061 147.45 33.8961C152.028 29.9204 156.025 26.7728 159.441 24.4533C162.857 22.1338 165.644 20.5941 167.802 19.8341C169.95 19.0635 171.383 19.0431 172.099 19.7731L172.447 20.1274C173.09 20.7822 173.062 22.1739 172.364 24.3024C171.665 26.431 170.222 29.2212 168.034 32.6732C165.836 36.1144 162.772 40.212 158.842 44.9661C154.959 49.6504 150.143 54.9212 144.391 60.7788C138.64 66.6364 133.436 71.5719 128.779 75.5853C124.169 79.5288 120.175 82.62 116.796 84.8588C113.407 87.087 110.667 88.5568 108.577 89.2683C108.207 89.387 107.861 89.4841 107.537 89.5595C108.84 90.3439 110.201 91.0796 111.619 91.7665Z" fill="white"/>
<path d="M103.682 86.9726C103.721 86.3175 103.891 85.5341 104.19 84.6225C104.936 82.4241 106.448 79.5854 108.725 76.1065C111.003 72.6276 114.093 68.5568 117.997 63.894C121.838 59.2821 126.5 54.1802 131.981 48.5881C126.318 54.3474 121.187 59.2081 116.589 63.1702C111.979 67.1137 107.985 70.2048 104.606 72.4437C101.217 74.6719 98.4776 76.1417 96.3877 76.8532C95.5795 77.1126 94.8812 77.2687 94.2927 77.3214C95.0517 78.3769 95.8566 79.415 96.7073 80.4358C98.7552 82.8498 101.08 85.0287 103.682 86.9726Z" fill="white"/>
<path d="M91.6845 73.3207C90.1375 70.6873 88.8541 67.9539 87.8344 65.1206C85.9448 59.642 85 54.371 85 49.3074V46.5681C85 40.9235 85.9859 35.3619 87.9576 29.8833C90.0115 24.3217 93.0514 19.2996 97.077 14.8171C101.103 10.3346 106.114 6.76524 112.112 4.10895C118.109 1.36965 125.051 0 132.938 0C140.825 0 147.768 1.36965 153.765 4.10895C155.692 4.96234 157.517 5.90998 159.24 6.95186C158.434 6.68484 157.225 6.84055 155.613 7.41902C153.454 8.17895 150.667 9.71869 147.251 12.0382C143.836 14.3577 139.839 17.5053 135.261 21.481C130.672 25.446 125.589 30.2685 120.012 35.9486C114.435 41.6286 109.7 46.8054 105.807 51.4789C101.904 56.1416 98.8132 60.2125 96.5358 63.6914C94.2584 67.1703 92.7466 70.0089 92.0004 72.2074C91.8707 72.6026 91.7654 72.9737 91.6845 73.3207Z" fill="white"/>
</svg>
