<svg width="244" height="32" viewBox="0 0 244 32" fill="none" xmlns="http://www.w3.org/2000/svg">
<path fill-rule="evenodd" clip-rule="evenodd" d="M67.861 32C65.1066 32 62.7835 31.5711 60.8915 30.7134C58.9996 29.8279 57.5668 28.6381 56.593 27.144C55.6193 25.6221 55.1324 23.8789 55.1324 21.9144H61.7679C61.7679 22.6891 61.9766 23.4086 62.3939 24.0726C62.8391 24.7367 63.5068 25.2763 64.3971 25.6913C65.2874 26.0787 66.442 26.2724 67.861 26.2724C69.1408 26.2724 70.2119 26.1064 71.0744 25.7743C71.9369 25.4423 72.5907 24.9857 73.0359 24.4047C73.481 23.7959 73.7036 23.1042 73.7036 22.3294C73.7036 21.361 73.2863 20.6001 72.4516 20.0467C71.617 19.4656 70.2676 19.0921 68.4035 18.9261L66.1082 18.7185C63.0756 18.4695 60.6551 17.5288 58.8466 15.8962C57.0382 14.2637 56.134 12.1055 56.134 9.42153C56.134 7.48465 56.593 5.81064 57.5112 4.39948C58.4571 2.98833 59.7647 1.90921 61.4341 1.16213C63.1034 0.387376 65.0788 0 67.3602 0C69.7529 0 71.7978 0.415045 73.4949 1.24514C75.2199 2.04756 76.5415 3.19585 77.4596 4.69001C78.3777 6.15651 78.8368 7.88586 78.8368 9.87808H72.1595C72.1595 9.131 71.9786 8.45309 71.617 7.84436C71.2553 7.20796 70.7127 6.69607 69.9894 6.30869C69.2938 5.92131 68.4174 5.72763 67.3602 5.72763C66.3586 5.72763 65.51 5.89364 64.8145 6.22568C64.1467 6.55772 63.6459 7.01427 63.3121 7.59533C62.9782 8.14873 62.8113 8.75746 62.8113 9.42153C62.8113 10.2793 63.1173 11.0264 63.7294 11.6628C64.3415 12.2992 65.3431 12.6727 66.7342 12.7834L69.0712 12.9909C71.297 13.1846 73.2585 13.6688 74.9556 14.4436C76.6528 15.1907 77.9743 16.2283 78.9202 17.5564C79.894 18.8569 80.3809 20.4479 80.3809 22.3294C80.3809 24.2663 79.8662 25.968 78.8368 27.4345C77.8352 28.8733 76.4024 29.9939 74.5383 30.7964C72.6742 31.5988 70.4484 32 67.861 32ZM0 0.9131V31.2114H5.84264H6.6773H19.1555V25.5668H6.6773V18.6355H18.1956V12.9909H6.6773V6.55772H18.8634V0.9131H6.6773H5.84264H0ZM31.9571 0.9131L21.8995 31.2114H28.7437L31.1555 23.6991H43.882L46.3551 31.2114H53.4497L43.0164 0.9131H31.9571ZM42.0239 18.0545L38.2119 6.47471H36.6853L32.9677 18.0545H42.0239ZM90.2511 6.84825V31.2114H97.0953V6.84825H105.692V0.9131H81.6958V6.84825H90.2511ZM109.998 31.2114V0.9131H116.007H116.842H128.277V6.55772H116.842V13.3645H127.776V19.0091H116.842V31.2114H109.998ZM169.337 0.664072V31.2114H176.181V21.4994H181.169L187.825 31.2114H195.754L187.98 20.374C189.789 19.6277 191.184 18.5364 192.165 17.0999C193.194 15.6057 193.709 13.738 193.709 11.4968V10.8327C193.709 8.56377 193.208 6.68223 192.207 5.18807C191.205 3.6939 189.772 2.57328 187.908 1.8262C186.044 1.05145 183.846 0.664072 181.314 0.664072H176.181H174.345H169.337ZM176.181 6.43321V16.1453H181.857C182.859 16.1453 183.721 15.9516 184.444 15.5642C185.196 15.1492 185.766 14.5819 186.155 13.8625C186.573 13.1154 186.781 12.2577 186.781 11.2892C186.781 10.3208 186.573 9.47687 186.155 8.75746C185.766 8.01038 185.196 7.44315 184.444 7.05577C183.721 6.64073 182.859 6.43321 181.857 6.43321H176.181ZM205.058 31.2114V6.84825H196.503V0.9131H220.499V6.84825H211.902V31.2114H205.058ZM224.045 0.9131V31.2114H229.887H230.722H243.2V25.5668H230.722V18.6355H242.24V12.9909H230.722V6.55772H242.908V0.9131H230.722H229.887H224.045ZM147.42 32C144.715 32 142.352 31.5296 140.331 30.5888C139.859 30.3599 139.407 30.1146 138.973 29.8532C139.081 29.828 139.196 29.7957 139.319 29.7561C140.014 29.5189 140.925 29.029 142.052 28.2863C143.176 27.54 144.504 26.5096 146.036 25.1951C147.585 23.8573 149.315 22.2121 151.228 20.2596C153.14 18.3071 154.742 16.5501 156.032 14.9887C157.339 13.404 158.358 12.0381 159.089 10.891C159.816 9.7404 160.296 8.81032 160.528 8.10081C160.761 7.3913 160.77 6.9274 160.556 6.70912L160.441 6.59103C160.202 6.3477 159.726 6.35448 159.012 6.61137C158.294 6.86468 157.367 7.37793 156.232 8.1511C155.096 8.92427 153.767 9.97347 152.245 11.2987C150.74 12.6017 149.077 14.1825 147.253 16.0412C149.131 14.1206 150.706 12.3904 151.979 10.8503C153.286 9.26561 154.305 7.89972 155.036 6.75266C155.763 5.60201 156.243 4.67193 156.475 3.96242C156.708 3.25291 156.717 2.78901 156.503 2.57073L156.393 2.45862C157.509 3.16244 158.493 3.98925 159.343 4.93904C160.682 6.4332 161.693 8.10722 162.376 9.96109C163.059 11.7873 163.4 13.6412 163.4 15.5227V16.4358C163.4 18.1237 163.072 19.8807 162.417 21.7069C161.761 23.5331 160.778 25.2348 159.466 26.8119C158.155 28.3614 156.489 29.6204 154.467 30.5888C152.473 31.5296 150.124 32 147.42 32ZM137.861 28.2075C137.761 28.5114 137.705 28.7725 137.692 28.9909C136.827 28.3429 136.054 27.6166 135.373 26.8119C135.09 26.4717 134.822 26.1256 134.57 25.7738C134.765 25.7562 134.998 25.7042 135.266 25.6177C135.961 25.3805 136.872 24.8906 137.999 24.1479C139.123 23.4016 140.451 22.3712 141.983 21.0567C143.511 19.7372 145.215 18.1187 147.096 16.2013C145.276 18.0632 143.728 19.7622 142.451 21.298C141.153 22.8522 140.126 24.2092 139.369 25.3688C138.611 26.5285 138.109 27.4747 137.861 28.2075ZM132.422 21.7069C132.761 22.6513 133.188 23.5624 133.703 24.4403C133.73 24.3246 133.765 24.2009 133.808 24.0691C134.056 23.3363 134.558 22.3901 135.316 21.2304C136.073 20.0708 137.1 18.7139 138.398 17.1596C139.693 15.6018 141.267 13.8762 143.122 11.9828C144.976 10.0895 146.666 8.48197 148.192 7.16032C149.714 5.83508 151.043 4.78588 152.179 4.01271C153.314 3.23954 154.241 2.7263 154.959 2.47298C155.495 2.28019 155.897 2.22827 156.165 2.31721C155.592 1.96995 154.985 1.65409 154.344 1.36965C152.35 0.45655 150.042 0 147.42 0C144.797 0 142.489 0.45655 140.495 1.36965C138.5 2.25508 136.834 3.44488 135.496 4.93904C134.157 6.4332 133.146 8.10722 132.463 9.96109C131.808 11.7873 131.48 13.6412 131.48 15.5227V16.4358C131.48 18.1237 131.794 19.8807 132.422 21.7069Z" fill="black"/>
</svg>
