<svg width="24" height="24" viewBox="0 0 24 24" fill="none" xmlns="http://www.w3.org/2000/svg">
<path d="M12.002 1C5.89122 1 2.20751 4.76646 1.26985 8.49902C0.296452 12.37 1.9967 16.0787 5.71982 18.2946C4.89216 21.2968 4.39079 22.3048 5.18179 22.8446C6.06904 23.4512 7.34674 22.1967 9.48144 20.559L10.3586 19.8873C13.7948 20.3327 17.2952 19.3439 19.7737 17.2178C21.8543 15.4326 23 13.0454 23 10.4968C23.0009 5.2595 18.067 1 12.002 1ZM18.88 16.174C16.6307 18.104 13.4126 18.9681 10.2752 18.487C9.83616 18.4165 7.89944 20.1118 6.32293 21.2097C6.50074 20.5361 6.84904 19.4025 7.18726 18.137C7.26975 17.829 7.12951 17.5046 6.84812 17.3543C2.69879 15.1265 1.93345 11.4929 2.60164 8.83443C3.41189 5.61965 6.63181 2.37462 12.002 2.37462C17.309 2.37462 21.6261 6.01829 21.6261 10.4959C21.6261 12.6385 20.6508 14.6546 18.88 16.174Z" fill="#4361EE" stroke="#4361EE" stroke-width="0.4"/>
<path fill-rule="evenodd" clip-rule="evenodd" d="M17.3971 8.84157V9.86804L18.8863 8.37884C19.488 7.77711 20.3979 8.67581 19.81 9.28531L19.8074 9.2879C19.8066 9.28919 19.8055 9.29027 19.8044 9.29135C19.8033 9.29243 19.8023 9.29351 19.8014 9.2948L18.2276 10.8686L19.8307 12.7359C20.1951 13.1607 19.8834 13.8056 19.3395 13.8056C19.0114 13.8056 18.8752 13.6379 18.4549 13.1207C18.2194 12.8309 17.8947 12.4313 17.3971 11.8899V13.1581C17.3971 14.0154 16.1021 14.0145 16.1021 13.1581V8.84157C16.1021 7.9843 17.3971 7.98517 17.3971 8.84157ZM4.66331 8.19404H7.25324C8.1105 8.19404 8.10964 9.489 7.25324 9.489H6.60576V13.158C6.60576 14.0153 5.31079 14.0144 5.31079 13.158V9.489H4.66331C3.80605 9.489 3.80691 8.19404 4.66331 8.19404ZM10.4418 8.59882C10.4427 8.59969 10.4436 8.60055 10.444 8.60184L12.1715 12.9184C12.4917 13.7161 11.2857 14.1935 10.9689 13.3992L10.6141 12.5118H9.07305C9.02398 12.6024 8.97854 12.7304 8.92859 12.871C8.75265 13.3664 8.52065 14.0196 7.8765 13.7601C7.54413 13.6271 7.38269 13.2499 7.51564 12.9184L9.24226 8.60184C9.2428 8.60022 9.24368 8.59893 9.24448 8.59777L9.24571 8.5958C9.46758 8.05796 10.2273 8.08213 10.4397 8.5958C10.4401 8.5971 10.441 8.59796 10.4418 8.59882ZM9.84312 10.5849L9.59103 11.2159H10.0952L9.84312 10.5849ZM15.023 12.5109H13.9438V8.84182C13.9438 7.98542 12.6489 7.98456 12.6489 8.84182V13.1583C12.6489 13.5158 12.9389 13.8058 13.2964 13.8058H15.023C15.8794 13.8058 15.8802 12.5109 15.023 12.5109Z" fill="#4361EE"/>
</svg>
