<svg width="16" height="16" viewBox="0 0 16 16" fill="none" xmlns="http://www.w3.org/2000/svg">
<path fill-rule="evenodd" clip-rule="evenodd" d="M3.26638 7.2001H4.82318C4.89438 5.9633 5.12958 4.8241 5.49278 3.9057C4.90798 4.26403 4.40671 4.74345 4.02268 5.3117C3.63865 5.87995 3.38076 6.52386 3.26638 7.2001ZM7.99998 1.6001C6.30259 1.6001 4.67473 2.27438 3.47449 3.47461C2.27426 4.67485 1.59998 6.30271 1.59998 8.0001C1.59998 9.69748 2.27426 11.3253 3.47449 12.5256C4.67473 13.7258 6.30259 14.4001 7.99998 14.4001C9.69736 14.4001 11.3252 13.7258 12.5255 12.5256C13.7257 11.3253 14.4 9.69748 14.4 8.0001C14.4 6.30271 13.7257 4.67485 12.5255 3.47461C11.3252 2.27438 9.69736 1.6001 7.99998 1.6001ZM7.99998 3.2001C7.93918 3.2001 7.81438 3.2257 7.62798 3.4097C7.43758 3.5969 7.23038 3.9081 7.03838 4.3553C6.72718 5.0809 6.49998 6.0689 6.42558 7.2001H9.57438C9.49998 6.0689 9.27278 5.0809 8.96158 4.3553C8.76958 3.9073 8.56158 3.5969 8.37198 3.4097C8.18558 3.2257 8.06078 3.2001 7.99998 3.2001ZM11.1768 7.2001C11.1056 5.9633 10.8704 4.8241 10.5072 3.9057C11.092 4.26403 11.5932 4.74345 11.9773 5.3117C12.3613 5.87995 12.6192 6.52386 12.7336 7.2001H11.1768ZM9.57438 8.8001H6.42558C6.49998 9.9313 6.72718 10.9193 7.03838 11.6449C7.23038 12.0929 7.43838 12.4033 7.62798 12.5905C7.81438 12.7745 7.93918 12.8001 7.99998 12.8001C8.06078 12.8001 8.18558 12.7745 8.37198 12.5905C8.56238 12.4033 8.77038 12.0921 8.96158 11.6449C9.27278 10.9193 9.49998 9.9313 9.57438 8.8001ZM10.5072 12.0945C10.8704 11.1769 11.1056 10.0369 11.1768 8.8001H12.7336C12.6192 9.47634 12.3613 10.1202 11.9773 10.6885C11.5932 11.2567 11.092 11.7362 10.5072 12.0945ZM5.49278 12.0945C5.12958 11.1761 4.89438 10.0369 4.82398 8.8001H3.26638C3.38076 9.47634 3.63865 10.1202 4.02268 10.6885C4.40671 11.2567 4.90798 11.7362 5.49278 12.0945Z" fill="black"/>
</svg>
