<svg width="24" height="24" viewBox="0 0 24 24" fill="none" xmlns="http://www.w3.org/2000/svg">
<circle cx="12" cy="12" r="12" fill="#4361EE"/>
<path d="M17.9993 18H15.516V14.1026C15.516 13.1733 15.4971 11.9773 14.222 11.9773C12.9272 11.9773 12.7295 12.9885 12.7295 14.0341V18H10.2462V9.98554H12.6317V11.078H12.6638C12.9971 10.4481 13.8076 9.78329 15.0185 9.78329C17.5346 9.78329 18 11.4419 18 13.6009L17.9993 18ZM7.44148 8.8889C6.64213 8.8889 6 8.24086 6 7.44375C6 6.64734 6.64283 6 7.44148 6C8.23803 6 8.88366 6.64734 8.88366 7.44375C8.88366 8.24086 8.23734 8.8889 7.44148 8.8889ZM8.68662 18H6.19634V9.98554H8.68662V18Z" fill="white"/>
</svg>
