<svg width="24" height="24" viewBox="0 0 24 24" fill="none" xmlns="http://www.w3.org/2000/svg">
<circle cx="12" cy="12" r="12" fill="#4361EE"/>
<path fill-rule="evenodd" clip-rule="evenodd" d="M13.9764 7.90264C14.1147 7.75937 14.2803 7.6451 14.4633 7.56648C14.6463 7.48787 14.8431 7.44649 15.0423 7.44476C15.2414 7.44303 15.4389 7.48098 15.6233 7.5564C15.8076 7.63182 15.9751 7.7432 16.116 7.88404C16.2568 8.02488 16.3682 8.19236 16.4436 8.3767C16.519 8.56105 16.557 8.75857 16.5552 8.95774C16.5535 9.15691 16.5121 9.35374 16.4335 9.53674C16.3549 9.71975 16.2406 9.88527 16.0974 10.0236L13.8474 12.2736C13.5661 12.5548 13.1846 12.7128 12.7869 12.7128C12.3891 12.7128 12.0077 12.5548 11.7264 12.2736C11.5849 12.137 11.3955 12.0614 11.1988 12.0631C11.0022 12.0648 10.8141 12.1437 10.675 12.2828C10.5359 12.4218 10.4571 12.6099 10.4554 12.8066C10.4536 13.0032 10.5292 13.1927 10.6659 13.3341C11.2284 13.8965 11.9914 14.2125 12.7869 14.2125C13.5824 14.2125 14.3453 13.8965 14.9079 13.3341L17.1579 11.0841C17.7043 10.5183 18.0067 9.76052 17.9999 8.97393C17.9931 8.18734 17.6775 7.4349 17.1213 6.87868C16.5651 6.32246 15.8127 6.00695 15.0261 6.00011C14.2395 5.99328 13.4817 6.29566 12.9159 6.84214L11.7909 7.96714C11.7192 8.03632 11.6621 8.11908 11.6228 8.21058C11.5835 8.30209 11.5628 8.4005 11.5619 8.50008C11.5611 8.59967 11.58 8.69843 11.6177 8.7906C11.6555 8.88277 11.7111 8.96651 11.7816 9.03693C11.852 9.10735 11.9357 9.16304 12.0279 9.20075C12.1201 9.23846 12.2188 9.25744 12.3184 9.25657C12.418 9.25571 12.5164 9.23502 12.6079 9.19571C12.6994 9.15641 12.7822 9.09927 12.8514 9.02764L13.9764 7.90264ZM10.2264 11.6526C10.5077 11.3714 10.8891 11.2135 11.2869 11.2135C11.6846 11.2135 12.0661 11.3714 12.3474 11.6526C12.4165 11.7243 12.4993 11.7814 12.5908 11.8207C12.6823 11.86 12.7807 11.8807 12.8803 11.8816C12.9799 11.8824 13.0787 11.8635 13.1708 11.8258C13.263 11.788 13.3467 11.7324 13.4172 11.6619C13.4876 11.5915 13.5433 11.5078 13.581 11.4156C13.6187 11.3234 13.6377 11.2247 13.6368 11.1251C13.6359 11.0255 13.6152 10.9271 13.5759 10.8356C13.5366 10.7441 13.4795 10.6613 13.4079 10.5921C12.8453 10.0297 12.0824 9.71378 11.2869 9.71378C10.4914 9.71378 9.72845 10.0297 9.16586 10.5921L6.91586 12.8421C6.62933 13.1189 6.40079 13.4499 6.24356 13.8159C6.08633 14.1819 6.00357 14.5756 6.00011 14.9739C5.99665 15.3723 6.07256 15.7673 6.2234 16.136C6.37424 16.5047 6.597 16.8396 6.87868 17.1213C7.16036 17.403 7.49531 17.6258 7.864 17.7766C8.23269 17.9274 8.62773 18.0033 9.02607 17.9999C9.42441 17.9964 9.81807 17.9137 10.1841 17.7564C10.5501 17.5992 10.8811 17.3707 11.1579 17.0841L12.2829 15.9591C12.3545 15.89 12.4116 15.8072 12.4509 15.7157C12.4902 15.6242 12.5109 15.5258 12.5118 15.4262C12.5127 15.3266 12.4937 15.2278 12.456 15.1357C12.4183 15.0435 12.3626 14.9598 12.2922 14.8893C12.2217 14.8189 12.138 14.7632 12.0458 14.7255C11.9537 14.6878 11.8549 14.6688 11.7553 14.6697C11.6557 14.6706 11.5573 14.6913 11.4658 14.7306C11.3743 14.7699 11.2915 14.827 11.2224 14.8986L10.0974 16.0236C9.95899 16.1669 9.79348 16.2812 9.61047 16.3598C9.42747 16.4384 9.23064 16.4798 9.03147 16.4815C8.8323 16.4832 8.63478 16.4453 8.45043 16.3699C8.26609 16.2944 8.09861 16.1831 7.95777 16.0422C7.81693 15.9014 7.70555 15.7339 7.63013 15.5496C7.55471 15.3652 7.51676 15.1677 7.51849 14.9685C7.52022 14.7694 7.5616 14.5725 7.64021 14.3895C7.71883 14.2065 7.8331 14.041 7.97636 13.9026L10.2264 11.6526Z" fill="white"/>
</svg>
