<svg width="120" height="120" viewBox="0 0 120 120" fill="none" xmlns="http://www.w3.org/2000/svg">
<path d="M116 39.9984C116.984 39.9984 117.886 40.3544 118.583 40.9446L118.581 79.9985H1.41626V40.9448C2.11329 40.3544 3.01517 39.9984 4.00024 39.9984H116Z" fill="#3A0CA3"/>
<path d="M118.58 40.9456L99.9996 54.6009H20.0002L1.42031 40.9456C0.552422 41.6794 0 42.7746 0 44.0002V116C0 118.209 1.79109 120 4.00031 120H25.0003H94.9999H116C118.209 120 120 118.209 120 116V44.0002C120 42.7746 119.448 41.6794 118.58 40.9456Z" fill="#4361EE"/>
<path d="M28.2498 112.001H11.7498C9.67858 112.001 7.99976 110.322 7.99976 108.251V91.7507C7.99976 89.6798 9.67858 88.0007 11.7498 88.0007H28.2495C30.3207 88.0007 31.9995 89.6798 31.9995 91.7507V108.251C31.9998 110.321 30.3207 112.001 28.2498 112.001Z" fill="#4CC9F0"/>
<path d="M22.1251 104.001H17.8748C16.8393 104.001 15.9998 103.161 15.9998 102.126V97.8755C15.9998 96.84 16.8393 96.0005 17.8748 96.0005H22.1251C23.1606 96.0005 24.0001 96.84 24.0001 97.8755V102.126C24.0001 103.161 23.1606 104.001 22.1251 104.001Z" fill="#4CC9F0"/>
<path d="M110.125 112H97.875C96.8395 112 96 111.161 96 110.125V105.875C96 104.84 96.8395 104 97.875 104H110.125C111.161 104 112 104.84 112 105.875V110.125C112 111.161 111.16 112 110.125 112Z" fill="#4CC9F0"/>
<path d="M94.4467 58.6821L99.9999 54.6009V4.00008C99.9999 1.79086 98.2091 0 95.9999 0H24.0003C21.7911 0 20.0002 1.79086 20.0002 4.00008V54.6009L48.9142 75.851L71.0853 75.8512L94.4467 58.6821Z" fill="#EE256A"/>
<path d="M60 64.6875C75.6625 64.6875 88.3594 51.9906 88.3594 36.3281C88.3594 20.6657 75.6625 7.96875 60 7.96875C44.3376 7.96875 31.6406 20.6657 31.6406 36.3281C31.6406 51.9906 44.3376 64.6875 60 64.6875Z" fill="white"/>
<path d="M59.9999 16.875C59.3774 16.875 58.8738 17.3787 58.8738 18.0011V21.3794C58.8738 22.0018 59.3774 22.5055 59.9999 22.5055C60.6223 22.5055 61.126 22.0018 61.126 21.3794V18.0011C61.126 17.3787 60.6223 16.875 59.9999 16.875Z" fill="#4361EE"/>
<path d="M54.0395 23.9615L51.7873 21.7093C51.3473 21.2694 50.6347 21.2694 50.1949 21.7093C49.755 22.1491 49.755 22.8618 50.1949 23.3017L52.4471 25.5539C52.8869 25.9937 53.5996 25.9937 54.0395 25.5539C54.4793 25.114 54.4793 24.4013 54.0395 23.9615Z" fill="#4361EE"/>
<path d="M69.8051 21.7093C69.3652 21.2694 68.6526 21.2694 68.2127 21.7093L65.9605 23.9615C65.5207 24.4013 65.5207 25.114 65.9605 25.5539C66.4004 25.9937 67.113 25.9937 67.5529 25.5539L69.8051 23.3017C70.2449 22.8618 70.2449 22.1491 69.8051 21.7093Z" fill="#4361EE"/>
<path d="M78.0925 32.6404H74.6392V48.4058H78.0925C78.715 48.4058 79.2186 47.9021 79.2186 47.2797V33.7665C79.2186 33.144 78.715 32.6404 78.0925 32.6404Z" fill="#4361EE"/>
<path d="M41.9073 32.6404C41.2849 32.6404 40.7812 33.144 40.7812 33.7665V47.2797C40.7812 47.9021 41.2849 48.4058 41.9073 48.4058H45.3607V32.6404H41.9073Z" fill="#4361EE"/>
<path d="M59.1399 33.7665C58.281 33.7665 57.5091 34.2437 57.1253 35.0113L53.6975 41.8691C54.2715 42.1209 54.8786 42.2485 55.4988 42.2485C57.2133 42.2485 58.7562 41.2929 59.5248 39.7533L60.266 38.2709H62.4456C63.0384 38.2709 63.619 38.5117 64.038 38.9307L72.387 47.2797V33.7665H59.1399Z" fill="#4361EE"/>
<path d="M62.4456 40.5231H61.6582L61.5932 40.6533C60.5295 42.7806 58.4551 44.2825 56.0845 44.4763C54.3403 44.619 53.1315 44.1172 51.6982 43.4653C51.1153 43.2003 50.8617 42.5039 51.1481 41.9311L55.1101 34.0051C55.8731 32.4786 57.4333 31.5143 59.1399 31.5143H63.9996C64.3116 30.8234 64.5043 30.0691 64.5043 29.2621C64.5043 28.6397 64.0006 28.136 63.3782 28.136H54.6355C53.3556 28.136 52.1857 28.859 51.6132 30.0038L50.6063 32.0176C50.4155 32.3992 50.0256 32.6404 49.5989 32.6404H47.6128V48.4058H52.777L55.9672 51.596C56.892 52.5207 58.2239 52.8127 59.373 52.4285L68.99 49.4054C69.5647 49.2436 70.0493 48.9274 70.4444 48.5219L62.4456 40.5231Z" fill="#4361EE"/>
</svg>
