<svg width="24" height="24" viewBox="0 0 24 24" fill="none" xmlns="http://www.w3.org/2000/svg">
<circle cx="12" cy="12" r="12" fill="#4361EE"/>
<path d="M18.7234 8.7504C18.2257 8.95978 17.6941 9.10242 17.1344 9.16756C17.7048 8.83867 18.1435 8.32032 18.3511 7.70185C17.8162 8.00059 17.2233 8.21805 16.5922 8.33916C16.0882 7.82296 15.37 7.5 14.5724 7.5C13.0441 7.5 11.805 8.68581 11.805 10.1467C11.805 10.3566 11.8303 10.5584 11.8764 10.7517C9.57589 10.6478 7.53691 9.59063 6.17234 7.99252C5.93216 8.38115 5.79773 8.83275 5.79773 9.32473C5.79773 10.2452 6.28708 11.0542 7.02843 11.5295C6.57451 11.5155 6.14759 11.396 5.77523 11.1979V11.2307C5.77523 12.5145 6.7275 13.5851 7.99476 13.829C7.76246 13.8887 7.51722 13.921 7.26579 13.921C7.08918 13.921 6.91987 13.9049 6.75057 13.8747C7.10549 14.9259 8.12582 15.6924 9.34021 15.714C8.39525 16.424 7.19773 16.847 5.90798 16.847C5.68861 16.847 5.46981 16.8346 5.24988 16.811C6.48114 17.5613 7.93177 18 9.50051 18C14.5932 18 17.3746 13.9651 17.3746 10.4718C17.3746 10.3593 17.3746 10.2457 17.3662 10.1327C17.9067 9.7618 18.3786 9.29297 18.7499 8.76116L18.7234 8.7504Z" fill="white"/>
</svg>
